<svg xmlns="http://www.w3.org/2000/svg" xmlns:xlink="http://www.w3.org/1999/xlink" width="1326" height="410" viewBox="0 0 1326 410"><defs><clipPath id="a"><rect width="1326" height="410" transform="translate(208.998 531.214)" fill="#d2a04a"/></clipPath><clipPath id="b"><rect width="1326" height="410" transform="translate(208.998 546.214)" fill="#f5f3f0"/></clipPath><clipPath id="c"><rect width="43.867" height="43.867" fill="none"/></clipPath><clipPath id="d"><path d="M54.175,59.158C22.7,59.158,3.5,96.23,1.439,130.867v8.275a59.435,59.435,0,0,0,57.1,55.372h4.38a59.429,59.429,0,0,0,57.238-59.389c0-3.872.074-8.721.076-14.179v-.311c0-18.386-.861-43.534-8.129-61.477C103.22,37.209,77.663,59.158,54.175,59.158Z" transform="translate(-1.439 -49.403)" fill="none"/></clipPath><clipPath id="e"><path d="M-3202.283-967.668l-.361-.036L-3214-996.365l28.632-36.184,42.3-16.557,23.887,9.624,46.254,41.462v22.625l-11.008,5.419a59.435,59.435,0,0,1-59.277,55.148A59.438,59.438,0,0,1-3202.283-967.668Z" transform="translate(3361.849 1357.19)" fill="#0e382c" stroke="rgba(0,0,0,0)" stroke-miterlimit="10" stroke-width="1"/></clipPath></defs><g transform="translate(-208.998 -531.214)"><rect width="1326" height="410" transform="translate(208.998 531.214)" fill="#f5f3f0"/><g clip-path="url(#a)"><ellipse cx="789.5" cy="410" rx="789.5" ry="410" transform="translate(-292.871 870.213)" fill="#0f4d39"/><ellipse cx="924" cy="219.5" rx="924" ry="219.5" transform="translate(559.129 816.213)" fill="#02754b"/></g><g transform="translate(0 -15)" clip-path="url(#b)"><g transform="matrix(0.087, -0.996, 0.996, 0.087, 70.385, 911.211)"><path d="M162.088,0q-5.963,4.445-12.105,9.454C141.129,16.694,7.177,130.384,0,137.469c.936,4.385,1.758,8.618,6.753,15.036,11.623,14.932,49.536,10.055,52.977,10.228C65.669,157,182.752,55,190.1,49.03c5.73-4.651,11.33-8.856,16.721-12.655-2.305-5.018-11.185-16.933-18.85-24.089C177.6,2.6,167.8,1.424,162.088,0" transform="translate(161.349 0) rotate(81)" fill="#ffc89f"/><g transform="matrix(0.819, 0.574, -0.574, 0.819, 172.412, 67.985)"><path d="M0,27.161a173.755,173.755,0,0,1,16.852-5.036c1.144-.279,6.6-2.1,17.513-5.739,2.453-.818,4.452-1.518,5.459-3.424,1.709-3.238-.291-8.351-3.593-10.912C33.468-.093,30.187-.145,26.249.1A99.309,99.309,0,0,0,2.712,4.557Q1.356,15.859,0,27.161" transform="matrix(0.53, 0.848, -0.848, 0.53, 129.579, 107.688)" fill="#ffc89f"/><path d="M0,28.587a182.676,182.676,0,0,1,17.737-5.3c1.2-.293,6.947-2.209,18.433-6.041,2.582-.861,4.685-1.6,5.745-3.6,1.8-3.408-.306-8.79-3.781-11.486C35.225-.1,31.771-.153,27.627.106A104.507,104.507,0,0,0,2.855,4.8L0,28.587" transform="matrix(0.53, 0.848, -0.848, 0.53, 99.823, 105.869)" fill="#ffc89f"/><path d="M.066,28.973C-1.78,47.932,35.713,61.142,35.713,61.142s10.039-.665,22-7.6a79.545,79.545,0,0,0,22.8-20.1s19.15-4.753,23.106-13.556c1.011-2.25-.191-5.256-.988-8.03-.352-1.226-2.208-6.542-16.762-9.937A79.822,79.822,0,0,0,51.1,1.942C35.372,5.382,1.653,12.674.066,28.973" transform="matrix(0.53, 0.848, -0.848, 0.53, 51.852, 56.417)" fill="#ffc89f"/><path d="M0,27.161a173.814,173.814,0,0,1,16.852-5.036c1.144-.279,6.6-2.1,17.513-5.74,2.453-.818,4.452-1.517,5.458-3.423,1.709-3.238-.291-8.352-3.593-10.913C33.469-.093,30.187-.145,26.249.1A99.326,99.326,0,0,0,2.712,4.557Q1.356,15.86,0,27.161" transform="matrix(0.53, 0.848, -0.848, 0.53, 154.139, 103.671)" fill="#ffc89f"/><path d="M6.92,2.376H6.894a19.811,19.811,0,0,1-3.9-.633A19.961,19.961,0,0,1,.25.794.414.414,0,0,1,.577.033,19.081,19.081,0,0,0,3.2.944a19.114,19.114,0,0,0,3.74.607.413.413,0,0,1-.025.825" transform="matrix(0.53, 0.848, -0.848, 0.53, 104.829, 139.448)" fill="#eaa183"/><path d="M6.92,2.375H6.894a20.02,20.02,0,0,1-3.9-.633A20.052,20.052,0,0,1,.251.792.413.413,0,1,1,.577.033a19.147,19.147,0,0,0,2.628.91,19.179,19.179,0,0,0,3.74.607.413.413,0,0,1-.025.825" transform="matrix(0.454, 0.891, -0.891, 0.454, 85.13, 146.405)" fill="#eaa183"/><path d="M6.3,10.327a.413.413,0,0,1-.389-.273A26.444,26.444,0,0,0,4.793,7.411,26.906,26.906,0,0,0,.114.7a.414.414,0,1,1,.6-.57A27.753,27.753,0,0,1,5.536,7.048,27.265,27.265,0,0,1,6.689,9.774a.413.413,0,0,1-.249.529.4.4,0,0,1-.14.024" transform="matrix(0.53, 0.848, -0.848, 0.53, 72.711, 130.169)" fill="#eaa183"/><path d="M67.909,162.537,8.158,152.5A9.776,9.776,0,0,1,.137,141.239L22.493,8.159A9.777,9.777,0,0,1,33.755.137L93.5,10.174a9.777,9.777,0,0,1,8.022,11.261L79.17,154.516a9.777,9.777,0,0,1-11.261,8.022" transform="matrix(0.53, 0.848, -0.848, 0.53, 174.95, 0)" fill="#1a3c34"/><path d="M.056,131.523,21.591,3.332a3.994,3.994,0,0,1,4.6-3.277L90.829,10.914a3.994,3.994,0,0,1,3.277,4.6L72.571,143.706a3.993,3.993,0,0,1-4.6,3.276L3.333,136.123a3.993,3.993,0,0,1-3.277-4.6" transform="matrix(0.53, 0.848, -0.848, 0.53, 170.308, 7.324)" fill="#006241"/><path d="M13.423,15.9C14.671,12.951,15.276,3.21,10.379.362,2.854-1.391.207,3.67.026,5.884-.6,13.6,10.5,18.978,13.423,15.9" transform="matrix(0.53, 0.848, -0.848, 0.53, 95.138, 135.457)" fill="#ffc89f"/><path d="M16.563,16.7c1.5-3.548,5.315-12.32-4.064-16.266C3.436-1.675.248,4.42.03,7.087c-.759,9.29,13.006,13.326,16.532,9.616" transform="matrix(0.53, 0.848, -0.848, 0.53, 115.852, 125.746)" fill="#ffc89f"/><g transform="matrix(0.53, 0.848, -0.848, 0.53, 149.733, 51.685)" opacity="0.5"><g clip-path="url(#c)"><path d="M41.355,20.677A20.677,20.677,0,1,1,20.678,0,20.677,20.677,0,0,1,41.355,20.677" transform="translate(1.256 1.256)" fill="#1e3932"/><path d="M21.934,1.256A20.677,20.677,0,1,1,1.256,21.934,20.677,20.677,0,0,1,21.934,1.256m0-1.256A21.934,21.934,0,1,0,43.867,21.934,21.958,21.958,0,0,0,21.934,0" fill="#fff"/></g></g><path d="M12.939,6.284a.443.443,0,0,1-.11-.014,49.523,49.523,0,0,1-6.28-2.188A45.638,45.638,0,0,1,.193.763a.414.414,0,0,1,.441-.7A44.676,44.676,0,0,0,6.873,3.322a48.654,48.654,0,0,0,6.175,2.151.413.413,0,0,1-.109.812" transform="matrix(0.719, 0.695, -0.695, 0.719, 13.788, 105.32)" fill="#eaa183"/><path d="M.413,17.688a.418.418,0,0,1-.179-.04A.414.414,0,0,1,.041,17.1,49.8,49.8,0,0,0,3.45,7.718,46.911,46.911,0,0,0,4.849,0s.767.091.76.089A47.4,47.4,0,0,1,4.251,7.922,50.6,50.6,0,0,1,.786,17.454a.412.412,0,0,1-.372.234" transform="translate(52.465 95.252) rotate(61)" fill="#eaa183"/></g><g transform="matrix(0.819, 0.574, -0.574, 0.819, 179.581, 83.444)"><path d="M44.65,104.71c6.676-28.622-4.186-50.373-7.138-55.568a2.385,2.385,0,0,1,.016-2.386c8.2-13.992,7.889-28.738,7.337-32.861C44.62,12.07,43.578,4.282,37.436.932a11.735,11.735,0,0,0-1.813-.8,2.4,2.4,0,0,0-3.183,2.015,49.033,49.033,0,0,1-1.775,8.919c-1.307,4.388-2.87,7.359-5.669,12.615-2.726,5.118-5.134,8.991-8.676,14.665-5.6,8.975-6.163,9.287-7.355,12.3-1.3,3.279-.464,5.431-3.058,13.947C.519,82.275-.674,90.546.317,103.161a2.4,2.4,0,0,0,.2.789c1.007,2.263,4.974,12.732,20.76,12.818,8.137.044,21.223-2.844,23.372-12.059" transform="matrix(0.53, 0.848, -0.848, 0.53, 99.026, 0)" fill="#ffc89f"/><path d="M.413,11.567a.413.413,0,0,1-.269-.727A31.138,31.138,0,0,0,4.222,6.627,31.08,31.08,0,0,0,8.162.241a.413.413,0,0,1,.751.345A31.884,31.884,0,0,1,4.867,7.143,31.891,31.891,0,0,1,.682,11.468a.41.41,0,0,1-.269.1" transform="matrix(0.53, 0.848, -0.848, 0.53, 73.825, 49.386)" fill="#eaa183"/><path d="M10.327,17.764A.415.415,0,0,1,10.1,17.7,22.521,22.521,0,0,1,2.386,9.139,22.191,22.191,0,0,1,0,.441.412.412,0,0,1,.386,0,.4.4,0,0,1,.825.387a21.37,21.37,0,0,0,2.3,8.376A21.694,21.694,0,0,0,10.554,17a.413.413,0,0,1-.227.759" transform="translate(12.495 53.942) rotate(41)" fill="#eaa183"/><path d="M3.923,16.111a.413.413,0,0,1-.35-.192C.05,10.346-.782,5.823.7.306a.414.414,0,0,1,.8.215C.083,5.789.886,10.122,4.271,15.477a.413.413,0,0,1-.349.634" transform="translate(11.977 53.492) rotate(41)" fill="#eaa183"/></g></g></g><g transform="translate(572.515 677.495)"><g transform="translate(0 52.233)"><path d="M123.74,34.433a2.72,2.72,0,1,1-2.72,2.717,2.7,2.7,0,0,1,2.72-2.717m0,5.042A2.326,2.326,0,1,0,121.5,37.15a2.261,2.261,0,0,0,2.236,2.325M122.7,35.559h1.2c.752,0,1.107.3,1.107.907a.823.823,0,0,1-.839.871l.915,1.4h-.52l-.863-1.367h-.517v1.367H122.7Zm.484,1.415h.5c.428,0,.846-.02.846-.534,0-.44-.381-.487-.711-.487h-.634Z" transform="translate(62.56 -34.433)" fill="#00704a"/><path d="M85.907,44.4c0,5.52-3.081,8.474-8.839,8.474-5.654,0-8.842-3.034-8.842-8.421V34.671H74.58v9.472c0,2.626.725,3.783,2.433,3.783s2.541-1.051,2.541-4.053v-9.2h6.353Z" transform="translate(35.268 -34.31)" fill="#00704a"/><path d="M23.815,39.2V52.515H17.394V39.2H12.021V34.671H29.187V39.2Z" transform="translate(6.214 -34.31)" fill="#00704a"/><path d="M34.051,38.739l-1.584,6.112h3.208Zm4.134,13.777-1.074-3.271H31.08L29.94,52.516h-6.4l6.5-17.845h8.128l6.423,17.845Z" transform="translate(12.168 -34.31)" fill="#00704a"/><path d="M99.15,51.247l-1.926-4.625a6.385,6.385,0,0,1-4.15,1.622,4.294,4.294,0,0,1-4.194-4.6c0-2.556,1.474-4.7,4.1-4.7a6.973,6.973,0,0,1,4.25,1.735l1.9-4.517a15,15,0,0,0-7.163-1.722c-5.4,0-9.5,3.692-9.5,9.155,0,5.763,3.985,9.41,9.674,9.41a12.978,12.978,0,0,0,7.013-1.751" transform="translate(42.629 -34.433)" fill="#00704a"/><path d="M106.477,52.516l-4.023-6.506v6.506H96.22V34.671h6.235V41.2l3.768-6.533h6.969l-5.858,8.794,6.608,9.052Z" transform="translate(49.739 -34.31)" fill="#00704a"/><path d="M7.5,53c4.047,0,8.242-1.443,8.242-6.006,0-4.115-3.5-5.238-6.232-5.822-2.058-.444-3.043-.652-3.043-1.477,0-1.092,1.386-1.18,2.127-1.18a9.889,9.889,0,0,1,5.06,1.66l1.666-4.065a19.219,19.219,0,0,0-7.283-1.673c-4.194,0-7.48,2.025-7.48,6.106,0,3.342,2.536,4.631,5.335,5.324,1.934.476,3.179.619,3.179,1.582S8.119,48.683,7.2,48.683a8.318,8.318,0,0,1-5.186-1.919L0,50.7A13.979,13.979,0,0,0,7.5,53" transform="translate(0 -34.433)" fill="#00704a"/><path d="M116.689,53c4.041,0,8.24-1.443,8.24-6.006,0-4.115-3.5-5.238-6.235-5.822-2.055-.444-3.043-.652-3.043-1.477,0-1.092,1.386-1.18,2.131-1.18a9.887,9.887,0,0,1,5.057,1.66l1.664-4.065a19.216,19.216,0,0,0-7.278-1.673c-4.2,0-7.485,2.025-7.485,6.106,0,3.342,2.539,4.631,5.337,5.324,1.937.476,3.175.619,3.175,1.582s-.951,1.238-1.869,1.238a8.317,8.317,0,0,1-5.185-1.919L109.185,50.7a13.986,13.986,0,0,0,7.5,2.3" transform="translate(56.442 -34.433)" fill="#00704a"/><path d="M53.081,45.846a5.358,5.358,0,0,0,3.368-5.054c0-4.211-2.879-6.121-6.964-6.121H39.846V52.516h6.188v-5.3h1.561l3.214,5.3h6.676Zm-2.893-5.03a1.748,1.748,0,0,1-1.957,1.849h-2.2V38.944h2.221a1.7,1.7,0,0,1,1.934,1.819Z" transform="translate(20.598 -34.31)" fill="#00704a"/><path d="M67.29,43.4c2.321-.5,3.46-1.8,3.46-3.985,0-3.035-2.277-4.743-6.283-4.743H54.293V52.515h9.771c4.718,0,7.066-1.664,7.066-5.033A3.881,3.881,0,0,0,67.29,43.4m-6.876-4.859h2.237c1.189,0,1.955.508,1.955,1.552v.044c0,1-.748,1.579-1.977,1.579H60.414Zm4.287,8.44c0,1.054-.763,1.663-2.021,1.663H60.414V45.3H62.7c1.212,0,2,.539,2,1.638Z" transform="translate(28.066 -34.31)" fill="#00704a"/></g><g transform="translate(26.636 80.587)"><path d="M22.061,62.431H20.942v4.8H17.559V53.267h5.663c3.363,0,5.39,1.476,5.39,4.425a4.344,4.344,0,0,1-3.128,4.425l3.462,5.112H25.031Zm-1.119-2.3h1.611c1.632,0,2.439-.727,2.439-2.084S24.147,56.1,22.553,56.1H20.942Z" transform="translate(-17.559 -53.052)" fill="#00704a"/><path d="M33.553,56.1v2.676h4.169v2.555H33.553V64.4H38.41v2.831H30.172V53.267H38.41V56.1Z" transform="translate(-11.039 -53.052)" fill="#00704a"/><path d="M61.678,53.267,56.919,67.229H53.892l-3.01-9.144-3.028,9.144H44.807L40.087,53.267H43.8l2.831,9.065,2.931-9.065h2.97l2.929,9.065L58.3,53.267Z" transform="translate(-5.913 -53.052)" fill="#00704a"/><path d="M65.912,64.161H61.329l-.981,3.069H57.024l4.915-13.962h3.8l4.9,13.962H66.9Zm-.689-2.2L63.63,57.024l-1.593,4.935Z" transform="translate(2.842 -53.051)" fill="#00704a"/><path d="M75.031,62.431H73.91v4.8H70.529V53.267h5.663c3.363,0,5.388,1.476,5.388,4.425a4.343,4.343,0,0,1-3.125,4.425l3.46,5.112H78Zm-1.121-2.3h1.612c1.634,0,2.439-.727,2.439-2.084S77.116,56.1,75.523,56.1H73.91Z" transform="translate(9.823 -53.052)" fill="#00704a"/><path d="M83.043,53.267H88c4.188,0,7.08,2.221,7.08,6.982S92.205,67.23,88,67.23H83.043Zm4.9,11.072c1.987,0,3.541-1.142,3.541-4.09,0-2.931-1.573-4.091-3.541-4.091H86.424v8.181Z" transform="translate(16.292 -53.052)" fill="#00704a"/><path d="M95.109,65.259l1.415-2.183a5.555,5.555,0,0,0,3.716,1.808c1.1,0,1.751-.491,1.751-1.3,0-2.162-6.333-1.394-6.333-6.273,0-2.87,2.36-4.188,4.819-4.188,2.359,0,3.815.727,4.739,2.007l-1.437,2.084a5.123,5.123,0,0,0-3.125-1.4c-.945,0-1.594.454-1.594,1.2,0,1.986,6.509,1.455,6.509,6.1,0,3.029-2.163,4.484-4.956,4.484a6.509,6.509,0,0,1-5.5-2.339" transform="translate(22.529 -53.125)" fill="#00704a"/></g><g transform="translate(25.962 0)"><g transform="translate(0 1.57)"><path d="M52.57,28.377H39.387V26.194h9.332a.778.778,0,0,0,.775-.775V22.708a.776.776,0,0,0-.775-.774H39.387V19.9h11.1a.778.778,0,0,0,.775-.774V16.413a.779.779,0,0,0-.775-.775h-11.1V14.392a.778.778,0,0,0-.775-.775H34.651a.776.776,0,0,0-.772.775v1.245h-7.5c.115-.522.19-.962.234-1.271a.468.468,0,0,0,.015-.094v-.009a.411.411,0,0,0-.411-.41h-4.1a.411.411,0,0,0-.405.343V14.2a13.726,13.726,0,0,1-4.44,7.972l-.014.009a.415.415,0,0,0-.14.308.407.407,0,0,0,.115.282.155.155,0,0,0,.027.027l2.45,2.333a.406.406,0,0,0,.463.071.441.441,0,0,0,.064-.038A12.807,12.807,0,0,0,24.885,19.9h8.994v2.039H25.622a.776.776,0,0,0-.775.774v2.711a.778.778,0,0,0,.775.775h8.257v2.183H20.137a.776.776,0,0,0-.775.774V32.3a.778.778,0,0,0,.775.775H52.57a.778.778,0,0,0,.775-.775V29.15A.776.776,0,0,0,52.57,28.377Z" transform="translate(-17.115 5.469)" fill="#00704a"/><path d="M20.556,19.058v.011H48.395a.78.78,0,0,0,.775-.777V1.81a.78.78,0,0,0-.775-.775H20.556v.011a.77.77,0,0,0-.725.765V18.292A.772.772,0,0,0,20.556,19.058ZM25.341,6.009H43.659v2.2H25.341Zm18.319,6.182v2.089H25.341V12.191Z" transform="translate(-15.711 -1.035)" fill="#00704a"/></g><g transform="translate(44.965)"><path d="M62.171,24.878a.8.8,0,0,0,.094-1.107l-.447-.543.008,0h22.5a.781.781,0,0,0,.78-.778V20.62a.782.782,0,0,0-.78-.778h-22.5a.781.781,0,0,0-.78.778v1.67l-3.49-4.241a19.939,19.939,0,0,0,2.385-7.416V7.165a.778.778,0,0,0-.777-.778H56.714l1.5-1.594A.827.827,0,0,0,58.2,3.666L55.4.785a.74.74,0,0,0-1.077.008L52.508,2.73a.823.823,0,0,0,.009,1.124l2.46,2.533H50.146a.78.78,0,0,0-.778.778v3.208a.782.782,0,0,0,.778.78h4.889c-.19,1.6-1.306,6.715-7.885,11.7a.75.75,0,0,0-.393.658.76.76,0,0,0,.094.364c.017.03.038.059.058.088l1.767,2.4a1.194,1.194,0,0,0,.082.126.754.754,0,0,0,.872.218.793.793,0,0,0,.185-.112,25.908,25.908,0,0,0,3.334-2.729V39.506a.778.778,0,0,0,.777.778h3.016a.78.78,0,0,0,.778-.778V24.687l1.443,1.754a.763.763,0,0,0,1.086.094Z" transform="translate(-46.757 0.287)" fill="#00704a"/><path d="M81.2,27.727H76.433l1.691-2.187h.631a.781.781,0,0,0,.78-.778V17.245a.781.781,0,0,0-.78-.778H59.189a.781.781,0,0,0-.78.778v7.516a.781.781,0,0,0,.78.778H59.9l1.691,2.187H56.1a.779.779,0,0,0-.778.777v2.324a.782.782,0,0,0,.778.778H81.2a.783.783,0,0,0,.78-.778V28.5A.781.781,0,0,0,81.2,27.727ZM62.746,22.3V19.709H75.2V22.3Zm2.3,3.242h7.927l-1.658,2.142.05.046h-4.71l.05-.046Z" transform="translate(-42.331 8.512)" fill="#00704a"/><path d="M56.181,18.048a.78.78,0,0,0,.777.778h22.5a.782.782,0,0,0,.78-.778V4.055h-.018V3.827a.78.78,0,0,0-.778-.778H73.65V.778A.779.779,0,0,0,72.873,0H70.6a.779.779,0,0,0-.778.778V3.049H66.593V.778A.779.779,0,0,0,65.815,0H63.541a.78.78,0,0,0-.778.778V3.049H56.956a.781.781,0,0,0-.78.778V17.19h0Zm19.611-2.982H73.65V12.744h2.142Zm-5.971,0H66.593V12.744h3.228Zm-7.058,0H60.618V12.744h2.145ZM75.791,6.808V8.98H73.65V6.808Zm-5.971,0V8.98H66.593V6.808ZM62.763,8.98H60.618V6.808h2.145Z" transform="translate(-41.888 0)" fill="#00704a"/></g><g transform="translate(90.531 1.702)"><path d="M109.684,29.175h-8.625V25.83h5.887a.775.775,0,0,0,.774-.772v-2.7a.775.775,0,0,0-.774-.774h-5.887V18.57a54.845,54.845,0,0,0,6.813-1.1L108,17.44a.826.826,0,0,0,.561-.781c0-.026,0-.052,0-.076l-.033-.167-.551-2.8c0-.027-.008-.052-.012-.077a.826.826,0,0,0-.793-.625h-.056c-.03,0-.061.006-.093.011a.67.67,0,0,0-.1.021,92.467,92.467,0,0,1-17.609,2.011h-.008l-.05,0a.825.825,0,0,0-.777.8v.008l0,.056,0,.046.1,2.561v.017a.715.715,0,0,0,0,.08.824.824,0,0,0,.774.742h.046a.659.659,0,0,0,.079,0c1.15-.023,3.386-.085,6.028-.243v2.561H89.932a.779.779,0,0,0-.778.774v2.7a.779.779,0,0,0,.778.772H95.52v3.345H86.894a.775.775,0,0,0-.774.774v2.744a.775.775,0,0,0,.774.774h22.79a.776.776,0,0,0,.775-.774V29.948A.776.776,0,0,0,109.684,29.175Z" transform="translate(-71.975 4.975)" fill="#00704a"/><path d="M93.148,24.248a43.733,43.733,0,0,0-5.3-7.577h3.783A.778.778,0,0,0,92.4,15.9V13.019a.776.776,0,0,0-.775-.774H87.764V7.865a26.32,26.32,0,0,0,4.2-2.157v0a.823.823,0,0,0,.35-.674.812.812,0,0,0-.065-.322L90.919,1.654a.6.6,0,0,0-.032-.071.817.817,0,0,0-.728-.461H90.1a.822.822,0,0,0-.358.108l-.012.006A48.38,48.38,0,0,1,78.57,5.873a.452.452,0,0,0-.061.017.817.817,0,0,0-.576.763l0,.109a1.033,1.033,0,0,0,.026.14.4.4,0,0,0,.015.046l.875,2.79a.829.829,0,0,0,.749.608l.126,0,.074-.009.049-.011c.73-.161,1.931-.449,3.355-.868v2.791h-3.97a.777.777,0,0,0-.772.774V15.9a.778.778,0,0,0,.772.775h3.97v.006a65.213,65.213,0,0,1-6.221,10.171.444.444,0,0,0-.039.05.826.826,0,0,0-.15.452l0,.109a.831.831,0,0,0,.237.495.279.279,0,0,0,.038.035l2.315,2.192.038.033a.821.821,0,0,0,.5.2c.038,0,.082,0,.124,0a.812.812,0,0,0,.576-.323.668.668,0,0,0,.055-.079c.57-.854,1.506-2.281,2.523-3.944V39.376a.776.776,0,0,0,.775.775h3.008a.777.777,0,0,0,.775-.775v-15.4c.525.869,1.063,1.805,1.614,2.894l.056.109a.817.817,0,0,0,.657.4c.044,0,.083,0,.127,0a.8.8,0,0,0,.429-.171l.008,0,2.25-1.785A.968.968,0,0,0,93.148,24.248Z" transform="translate(-76.795 -1.122)" fill="#00704a"/><path d="M87.917,16.7a.778.778,0,0,0,.775.775h18.162a.777.777,0,0,0,.775-.775V2.6h0V2.389a.779.779,0,0,0-.777-.775H88.688a.776.776,0,0,0-.774.775V15.674h0Zm14.827-3.422H92.8V5.811h9.944Z" transform="translate(-71.047 -0.868)" fill="#00704a"/></g></g></g><g transform="translate(394.494 684.669)"><path d="M147.962,44.9l-15.2,182.665H28.617L7.5,44.9Z" transform="translate(-3.842 -22.999)" fill="#fff"/><path d="M154.941,405.22c0,4.511-8.52,8.511-21.616,10.969-2.117.4-4.36.756-6.7,1.068a182.488,182.488,0,0,1-23.752,1.483c-28.761,0-52.074-6.053-52.074-13.52S74.112,391.7,102.873,391.7a175.611,175.611,0,0,1,27.024,1.965c2.248.356,4.385.751,6.389,1.19,11.408,2.478,18.655,6.2,18.655,10.369" transform="translate(-26.024 -200.659)" fill="#fff"/><path d="M151.741,208.149a32.11,32.11,0,1,1-32.109-32.109,32.109,32.109,0,0,1,32.109,32.109" transform="translate(-44.836 -90.182)" fill="#006241"/><path d="M154.03,23.2c0,9.432-27.576,17.192-62.935,18.138q-3.6.1-7.3.1c-21.425,0-40.607-2.492-53.488-6.418C19.868,31.829,13.567,27.708,13.567,23.2,13.567,13.125,45.01,4.956,83.8,4.956c20.913,0,39.7,2.375,52.556,6.145,11,3.219,17.675,7.452,17.675,12.1" transform="translate(-6.95 -2.539)" fill="#c9c9c9"/><path d="M66.389-7.5c36.718,0,73.889,7.521,73.889,21.9s-37.171,21.9-73.889,21.9S-7.5,28.771-7.5,14.4,29.671-7.5,66.389-7.5Zm0,36.476c43.075,0,66.573-9.632,66.573-14.58S109.464-.184,66.389-.184-.184,9.447-.184,14.4,23.314,28.976,66.389,28.976Z" transform="translate(7.5 7.5)" fill="#fff"/></g><g transform="translate(331.939 558.582)"><path d="M32.312,0,21.3,18.813,0,14.152,14.489,30.441,3.474,49.254l19.969-8.746L37.932,56.8,35.785,35.1l19.97-8.746-21.3-4.662Z" transform="translate(123.135 24.61) rotate(25)" fill="#d2a04a"/><path d="M17.224,0,11.352,10.029,0,7.544l7.724,8.683L1.852,26.256,12.5,21.594l7.723,8.683L19.076,18.712,29.722,14.05,18.369,11.565Z" transform="matrix(0.616, 0.788, -0.788, 0.616, 101.911, 74.537)" fill="#d2a04a"/><path d="M17.224,0,11.352,10.029,0,7.544l7.724,8.683L1.852,26.256,12.5,21.594l7.723,8.683L19.076,18.712,29.722,14.05,18.369,11.565Z" transform="translate(81.621 8.609) rotate(87)" fill="#d2a04a"/><path d="M12.657,0,8.342,7.37,0,5.543l5.676,6.381-4.315,7.37,7.822-3.426,5.675,6.381-.841-8.5,7.822-3.426L13.5,8.5Z" transform="matrix(0.454, 0.891, -0.891, 0.454, 160.707, 95.568)" fill="#d2a04a"/><path d="M9.565,0,6.3,5.569,0,4.189,4.289,9.011,1.028,14.58,6.94,11.991l4.289,4.822-.635-6.422L16.5,7.8l-6.3-1.38Z" transform="translate(144.523 116.598) rotate(73)" fill="#d2a04a"/><path d="M9.565,0,6.3,5.569,0,4.189,4.289,9.011,1.028,14.58,6.94,11.991l4.289,4.822-.635-6.422L16.5,7.8l-6.3-1.38Z" transform="translate(17.098 17.93) rotate(91)" fill="#d2a04a"/><path d="M9.565,16.813,6.3,11.244,0,12.624,4.289,7.8,1.028,2.233,6.94,4.822,11.228,0l-.635,6.422L16.5,9.011l-6.3,1.38Z" transform="translate(117.144 1.173) rotate(94)" fill="#d2a04a"/><path d="M21.106,43.211a1,1,0,0,1-1-1V31.658a1,1,0,0,1,2,0V42.211A1,1,0,0,1,21.106,43.211ZM6.182,37.029a1,1,0,0,1-.707-1.707l8.43-8.43a1,1,0,0,1,1.414,1.414l-8.43,8.43A1,1,0,0,1,6.182,37.029Zm29.848,0a1,1,0,0,1-.707-.293l-8.43-8.43a1,1,0,1,1,1.414-1.414l8.43,8.43a1,1,0,0,1-.707,1.707Zm6.181-14.924H30.035a1,1,0,0,1,0-2H42.211a1,1,0,0,1,0,2Zm-30.035,0H0a1,1,0,1,1,0-2H12.176a1,1,0,1,1,0,2Zm2.435-6.494a1,1,0,0,1-.707-.293l-8.43-8.43A1,1,0,0,1,6.889,5.475l8.43,8.43a1,1,0,0,1-.707,1.707Zm12.988,0a1,1,0,0,1-.707-1.707l8.43-8.43a1,1,0,1,1,1.414,1.414l-8.43,8.43A1,1,0,0,1,27.6,15.612Zm-6.494-4.059a1,1,0,0,1-1-1V0a1,1,0,0,1,1-1,1,1,0,0,1,1,1V10.553A1,1,0,0,1,21.106,11.553Z" transform="translate(23.676 183.292) rotate(21)" fill="#0e6241"/><path d="M21.106,43.211a1,1,0,0,1-1-1V31.658a1,1,0,0,1,2,0V42.211A1,1,0,0,1,21.106,43.211ZM6.182,37.029a1,1,0,0,1-.707-1.707l8.43-8.43a1,1,0,0,1,1.414,1.414l-8.43,8.43A1,1,0,0,1,6.182,37.029Zm29.848,0a1,1,0,0,1-.707-.293l-8.43-8.43a1,1,0,1,1,1.414-1.414l8.43,8.43a1,1,0,0,1-.707,1.707Zm6.181-14.924H30.035a1,1,0,0,1,0-2H42.211a1,1,0,0,1,0,2Zm-30.035,0H0a1,1,0,1,1,0-2H12.176a1,1,0,1,1,0,2Zm2.435-6.494a1,1,0,0,1-.707-.293l-8.43-8.43A1,1,0,0,1,6.889,5.475l8.43,8.43a1,1,0,0,1-.707,1.707Zm12.988,0a1,1,0,0,1-.707-1.707l8.43-8.43a1,1,0,1,1,1.414,1.414l-8.43,8.43A1,1,0,0,1,27.6,15.612Zm-6.494-4.059a1,1,0,0,1-1-1V0a1,1,0,0,1,1-1,1,1,0,0,1,1,1V10.553A1,1,0,0,1,21.106,11.553Z" transform="translate(209.017 47.27) rotate(21)" fill="#0e6241"/></g><g transform="translate(564.998 808.213)"><path d="M17,1A16,16,0,0,0,5.686,28.314,15.9,15.9,0,0,0,17,33H71A16,16,0,0,0,82.314,5.686,15.9,15.9,0,0,0,71,1H17m0-1H71a17,17,0,0,1,0,34H17A17,17,0,0,1,17,0Z" fill="#12754b"/><text transform="translate(44 23)" fill="#12754b" font-size="14" font-family="NotoSansCJKtc-Bold, Noto Sans CJK TC" font-weight="700" opacity="0"><tspan x="-28" y="0">了解更多</tspan></text><path d="M-16.59-10.976l-.364.1H-26.67V-9.24h8.078a17.279,17.279,0,0,1-3.22,2.3v6.2c0,.238-.112.322-.42.322s-1.456.014-2.45-.028a5.946,5.946,0,0,1,.672,1.68,9.42,9.42,0,0,0,3.038-.28c.686-.252.91-.7.91-1.652V-6.1A23.261,23.261,0,0,0-15.246-10Zm9.38,3.85a3.968,3.968,0,0,1,.672.952c.1-.042.2-.1.294-.14a7.6,7.6,0,0,1-.966,2.73ZM-9.366-3.668V-4.83h.8v1.162Zm-1.89-1.162h.8v1.162h-.812c.014-.322.014-.63.014-.924ZM-9.786-9.3c-.126.35-.252.714-.392,1.022h-1.2c.168-.322.322-.672.476-1.022Zm.42,2.24h.8v1.05h-.8Zm-1.89,0h.8v1.05h-.8ZM-.434-2.576h-2.38v-1.26h2.1v-1.4h-2.1V-6.5H-4.4v1.26h-.686c.084-.294.14-.6.2-.9l-1.246-.252a4.263,4.263,0,0,0,2.2-3.4H-2.31a4.387,4.387,0,0,1-.252,1.792.415.415,0,0,1-.378.154c-.2,0-.574-.014-1.008-.056A3.319,3.319,0,0,1-3.57-6.552a10.339,10.339,0,0,0,1.414-.042A1.246,1.246,0,0,0-1.3-7.056c.308-.364.42-1.33.49-3.556.014-.182.028-.532.028-.532H-7v1.358h1.568A2.932,2.932,0,0,1-7.21-7.42v-.854H-8.778a15.713,15.713,0,0,0,.77-1.764l-.952-.588-.21.07h-1.274c.112-.322.21-.658.294-.994l-1.47-.308a9.8,9.8,0,0,1-2.072,4.3,9.019,9.019,0,0,1,1.092.9v2.072c0,1.568-.07,3.654-1.008,5.1a5.758,5.758,0,0,1,1.148.742,8.724,8.724,0,0,0,1.106-3.682h2.786V-.42c0,.182-.07.238-.238.238s-.714,0-1.274-.028A4.443,4.443,0,0,1-9.6,1.2,3.936,3.936,0,0,0-7.742.924c.42-.238.532-.658.532-1.316V-3.346a7.825,7.825,0,0,1,1.092.588,5.971,5.971,0,0,0,.56-1.078H-4.4v1.26h-2.59v1.428H-4.4v2.31h1.582v-2.31h2.38Zm6.4-.588a3.056,3.056,0,0,1-.812,1.218A5.313,5.313,0,0,1,3.794-3.164ZM3.654-5.432H6.23v.448c0,.154,0,.308-.014.462H3.654Zm0-2.142H6.23v.9H3.654Zm6.958,0v.9H7.98v-.9Zm0,3.052H7.966c.014-.154.014-.308.014-.448v-.462h2.632Zm1.652,1.358V-8.918H7.98v-.826h5.152v-1.484H.868v1.484H6.23v.826H2.086v5.754H3.57L2.3-2.646A6.75,6.75,0,0,0,3.738-1.078,13.59,13.59,0,0,1,.574-.252,7.733,7.733,0,0,1,1.582,1.232,12.634,12.634,0,0,0,5.376-.084c2,.882,4.578,1.092,7.616,1.162a4.035,4.035,0,0,1,.714-1.652,22.894,22.894,0,0,1-6.958-.644A4.589,4.589,0,0,0,7.77-3.164Zm10.584-6.09a9.336,9.336,0,0,1-2.31,1.638,11.218,11.218,0,0,0-1.582-1.358c.14-.1.28-.182.406-.28Zm1.554-1.54-.294.07H21.154q.4-.378.756-.756l-1.792-.42A12.024,12.024,0,0,1,15.26-8.778a5.1,5.1,0,0,1,1.134,1.19c.448-.2.868-.406,1.274-.63a17.662,17.662,0,0,1,1.372,1.26,19.236,19.236,0,0,1-4.13,1.064,6.147,6.147,0,0,1,.77,1.47c4.032-.756,8.008-2.492,9.814-5.712Zm.392,6.706a7.481,7.481,0,0,1-2.352,1.932A13.734,13.734,0,0,0,20.8-3.542c.266-.182.546-.364.812-.546Zm1.4-1.554-.308.084H23.38c.308-.308.574-.616.854-.938l-1.806-.42a11.822,11.822,0,0,1-5.88,3.626A5.245,5.245,0,0,1,17.57-2a15.222,15.222,0,0,0,1.806-.77c.5.42,1.064.9,1.456,1.3A23.128,23.128,0,0,1,14.77-.364a7.006,7.006,0,0,1,.672,1.61c5.334-.5,9.926-1.974,11.9-6.23Z" transform="translate(44 23)" fill="#12754b"/></g><g transform="translate(676.998 808.213)"><path d="M17,1A16,16,0,0,0,5.686,28.314,15.9,15.9,0,0,0,17,33H77A16,16,0,0,0,88.314,5.686,15.9,15.9,0,0,0,77,1H17m0-1H77a17,17,0,0,1,0,34H17A17,17,0,0,1,17,0Z" transform="translate(-3)" fill="#12754b"/><text transform="translate(44 23)" fill="#12754b" font-size="14" font-family="NotoSansCJKtc-Bold, Noto Sans CJK TC" font-weight="700" opacity="0"><tspan x="-30.716" y="0">加入/登入</tspan></text><path d="M-26.656-9.38c.014-.8.028-1.624.028-2.436h-1.68c0,.812,0,1.638-.014,2.436H-30v1.624h1.638c-.112,3.08-.532,5.88-2.016,7.784a4.467,4.467,0,0,1,1.316,1.19c1.666-2.226,2.184-5.446,2.352-8.974h1.372c-.168,4.634-.378,6.37-.686,6.776a.528.528,0,0,1-.49.266c-.252,0-.7-.014-1.19-.056A4.535,4.535,0,0,1-27.23.952a7.834,7.834,0,0,0,1.6-.07A1.476,1.476,0,0,0-24.556.14c.49-.658.7-2.842.91-8.764.014-.21.028-.77.028-.77Zm5.334,7.728V-8.666h1.876v7.014Zm-1.666-8.61V.924h1.666V-.042h1.876V.826h1.736V-10.262Zm9.506-.812V-9.38h3.192c.042.476.1.98.2,1.512l-.854-.154c-.77,3.682-2.436,6.384-5.348,7.854A13.3,13.3,0,0,1-14.77,1.19,12.115,12.115,0,0,0-9.6-5.726a11.829,11.829,0,0,0,5.152,6.9A8.963,8.963,0,0,1-3.108-.28c-5.152-3.038-5.53-8.148-5.53-10.794ZM-2.52,2.548h1.372L2.324-11.27H.952ZM12.054-3.4H7.182V-4.634h4.872ZM7.966-.476l.7-.238a5.764,5.764,0,0,0-.658-1.372h3.4a12.469,12.469,0,0,1-.728,1.61ZM7.35-6.748h4.858v-.49a11.669,11.669,0,0,0,1.47,1.288H5.81A10.6,10.6,0,0,0,7.35-7.28Zm6.5.91a9.565,9.565,0,0,0,1.526.868,6.379,6.379,0,0,1,1.134-1.4,8.982,8.982,0,0,1-2.38-1.386c.6-.434,1.3-.966,1.89-1.484L14.8-10.108a12.123,12.123,0,0,1-1.624,1.484c-.224-.238-.434-.462-.63-.714.6-.434,1.33-.98,1.946-1.5l-1.26-.9A10.273,10.273,0,0,1,11.8-10.388a10.454,10.454,0,0,1-.714-1.428L9.6-11.368a13.581,13.581,0,0,0,1.848,3.234H8.092A9.968,9.968,0,0,0,9.6-10.864L8.5-11.424l-.28.07H4.074v1.344H7.42A8.5,8.5,0,0,1,6.356-8.568,8.338,8.338,0,0,0,4.788-9.7l-.9.924A9.625,9.625,0,0,1,5.376-7.6,9.03,9.03,0,0,1,3-6.1,7.025,7.025,0,0,1,4.018-4.872a11.128,11.128,0,0,0,1.47-.854v3.64H7.532l-1.106.35A6.744,6.744,0,0,1,7-.476H3.57V.938H15.9V-.476H12.348c.21-.392.448-.84.672-1.316l-1.386-.294h2.212Zm6.1-5.236V-9.38h3.192c.042.476.1.98.2,1.512l-.854-.154c-.77,3.682-2.436,6.384-5.348,7.854A13.3,13.3,0,0,1,18.662,1.19a12.115,12.115,0,0,0,5.166-6.916,11.829,11.829,0,0,0,5.152,6.9A8.963,8.963,0,0,1,30.324-.28c-5.152-3.038-5.53-8.148-5.53-10.794Z" transform="translate(44 23)" fill="#12754b"/></g><g transform="translate(0 -20.721)"><g transform="translate(1170.998 320.46)"><path d="M118.856,584.713a59.428,59.428,0,1,0-59.428,59.428,59.428,59.428,0,0,0,59.428-59.428" transform="translate(192.286 -204.201)" fill="#0e382c"/><g transform="translate(221.071 339.133)"><path d="M4.5,0l4.88,57.99c5.979.943,15.573,3.312,21.993,10.133,0,0,7.689-8.131,25.191-8.177L61.589.275,61.612,0Zm53.84,19.513H7.772L6.193,1.519h53.73Z" transform="translate(-2.223)" fill="#fff"/><path d="M33.72,68.1A13.756,13.756,0,1,1,47.476,81.853,13.756,13.756,0,0,1,33.72,68.1" transform="translate(-16.641 -26.817)" fill="#005d2f"/><path d="M0,117s.508,17.654,13.294,26.751a37.737,37.737,0,0,0,23.174,6.678s-.506-14.688-10.636-24.818C17.47,117.249,0,117,0,117" transform="translate(0 -57.74)" fill="#005d2f"/><path d="M79.93,144.867c-5.748,2-8.521,4.379-9.785,5.86.484,1.361.916,2.782,1.285,4.248a27.507,27.507,0,0,1,9.152-5.8c4.892-2.074,8.3-1.812,9.977-1.436a34.3,34.3,0,0,0,2.147-3.779c-1.872-.6-6.191-1.387-12.776.9" transform="translate(-34.617 -70.735)" fill="#679f7d"/><path d="M82.675,155.653c-5.5,2.333-8.137,4.755-9.3,6.133.316,1.447.572,2.93.757,4.436a44.005,44.005,0,0,0,13.341-7.731,25.863,25.863,0,0,0,3.882-4.294,15.932,15.932,0,0,0-8.684,1.456" transform="translate(-36.213 -76.034)" fill="#679f7d"/><path d="M72.178,124.636c-6.881,1.731-10.565,4.518-12.374,6.388a27.433,27.433,0,0,1,2.326,3.45A28.845,28.845,0,0,1,74.724,128c7.867-1.933,13.391-.419,15.182.215a31.289,31.289,0,0,0,.893-3.6s-7.049-2.894-18.622.018" transform="translate(-29.514 -60.868)" fill="#679f7d"/><path d="M77.915,134.108a27.761,27.761,0,0,0-12.259,6.4,39.444,39.444,0,0,1,1.766,3.878c1.559-1.628,4.495-3.837,9.874-5.708,7.107-2.475,11.72-1.568,13.743-.874.554-1.246,1-2.427,1.364-3.5-1.585-.549-6.945-2.047-14.488-.2" transform="translate(-32.402 -65.74)" fill="#679f7d"/></g><text transform="translate(182 446.535)" fill="#0e6241" font-size="18" font-family="SourceHanSansTC-Medium, Source Han Sans TC" opacity="0" font-weight="500"><tspan x="33" y="21">循環杯</tspan><tspan y="21" xml:space="preserve" font-size="16" font-family="FontAwesome6Pro-Regular, 'Font Awesome \36  Pro'" font-weight="400"> </tspan></text><path d="M36.654,5.9A13.048,13.048,0,0,1,33.648,9.39a8.243,8.243,0,0,1,.864,1.26,17.467,17.467,0,0,0,3.654-4.194Zm.432,3.888A15.706,15.706,0,0,1,33.5,14.124a12.585,12.585,0,0,1,.828,1.62,17.947,17.947,0,0,0,1.4-1.44v8.118h1.512V12.4a18.041,18.041,0,0,0,1.278-2.034Zm10.53,5.868H43.242V14.466h4.374Zm-4.374,4.68V19.11h4.374v1.224Zm4.374-2.376H43.242V16.806h4.374Zm2.5-6.516v-1.35H46.23V8.4H44.61v1.692H41.118V8.472A62.39,62.39,0,0,0,49.452,7.3L48.174,6.114a68.083,68.083,0,0,1-8.532,1.224v5.814c0,2.646-.18,6.084-1.656,8.532a5.527,5.527,0,0,1,1.242.738c1.656-2.646,1.89-6.282,1.89-9.27v-1.71H44.61v1.71H41.676v9.234h1.566v-.774h4.374v.774h1.638V13.152H46.23v-1.71ZM65.976,9.228H64.464V7.7h1.512Zm-2.664,0H61.836V7.7h1.476Zm-2.628,0H59.262V7.7h1.422ZM67.416,6.51h-9.54V10.4h9.54Zm.576,4.662H57.174V12.5H67.992Zm-8.208,3.366h5.58v1.386h-5.58Zm6.984,2.736a17.659,17.659,0,0,1-2.052,1.35,7.463,7.463,0,0,1-.936-1.494h3.168v-3.8H58.29v3.8h2.43a15.019,15.019,0,0,1-4.068,1.782l-.18-1.3c-.5.144-1.026.306-1.53.45V13.692h1.44V12.234h-1.44V8.526H56.58V7.032H51.774V8.526h1.71v3.708H51.918v1.458h1.566v4.77c-.72.2-1.368.378-1.944.5l.324,1.53c1.368-.378,3.024-.864,4.662-1.368a5.816,5.816,0,0,1,.792,1.026,12.638,12.638,0,0,0,1.746-.7v.594a1.188,1.188,0,0,1-.648,1.152,4.662,4.662,0,0,1,.558,1.17v.018c.324-.2.864-.378,4.194-1.188a9.428,9.428,0,0,1,.018-1.224l-2.772.594V18.732a11.843,11.843,0,0,0,1.98-1.422,7.968,7.968,0,0,0,5,4.932,4.874,4.874,0,0,1,.99-1.278,7.146,7.146,0,0,1-2.844-1.476c.756-.342,1.6-.792,2.34-1.206Zm9.648-3.312c-.324-.378-1.638-1.746-2.214-2.232v-.486H76.47V9.66H74.2V5.9H72.6V9.66H69.972v1.584h2.412A18.85,18.85,0,0,1,69.54,17.67a8.809,8.809,0,0,1,.828,1.53A17.59,17.59,0,0,0,72.6,14.538V22.4h1.6V13.458c.5.648,1.008,1.368,1.278,1.8Zm5.508-1.854v-1.17a18.637,18.637,0,0,0,.972-2H86.19v-1.6H76.182v1.6h4.86a13.9,13.9,0,0,1-5.724,6.516,10.233,10.233,0,0,1,1.152,1.422,16.214,16.214,0,0,0,3.78-3.438v8.982h1.674V12.648a23.153,23.153,0,0,1,3.4,3.8l1.206-1.152a23.957,23.957,0,0,0-3.8-3.924Zm18.367,2.373-5.5-5.75a.75.75,0,0,0-1.083,1.037l5,5.232-5,5.231a.75.75,0,0,0,1.084,1.037l5.5-5.75A.752.752,0,0,0,100.291,14.481Zm6,0-5.5-5.75a.75.75,0,0,0-1.083,1.037l5,5.232-5,5.231a.75.75,0,0,0,1.084,1.037l5.5-5.75A.752.752,0,0,0,106.291,14.481Z" transform="translate(182 446.535)" fill="#0e6241"/></g><g transform="translate(1021.998 346.461)"><path d="M118.856,584.713a59.428,59.428,0,1,0-59.428,59.428,59.428,59.428,0,0,0,59.428-59.428" transform="translate(184 -197.992)" fill="#0e382c"/><g transform="translate(184.134 301)" clip-path="url(#d)"><path d="M863.035,760.6c2.5-1.168,3.692,2.282,3.767,4.312.187,5.039-2.62,8.38-6.987,10.79-4.311,2.378-7.075.826-6.052-3.975.818-3.838,5.695-9.457,9.271-11.127" transform="translate(-774.433 -712.241)" fill="#dfa479"/><path d="M289.017,795a.716.716,0,0,0,.1.1c.056.051.108.1.164.155-.084-.087-.172-.173-.26-.259" transform="translate(-262.316 -743.667)" fill="#3b2c3e"/><path d="M230.74,856.849s-4.769-2.925-5.278.783.73,9.383.7,14.79c-.044,7.971-5.44,32-3.2,38.605s5.984,13,11.26,20.436,2.088,60.191,2.088,60.191l39.392-.046L269.537,940.3c5.146-10.644,10.974-13.025,10.824-24.973-.008-.616-28.658-19.455-28.658-19.455l-8.561-11.041s-5.527-10.2-5.862-12.349-6.539-15.63-6.539-15.63" transform="translate(-201.901 -798.776)" fill="#dfa479"/><path d="M425.078,1353.955a.724.724,0,0,1-.736-.817c.065-.455.461-.638,1.157-.921.592-.242,1.454-.551,2.561-.92l4.962-1.654-4.358,2.892c-.194.129-.394.25-.6.359a11.633,11.633,0,0,1-1.853.8A3.977,3.977,0,0,1,425.078,1353.955Zm-28.92-11.63a.7.7,0,0,1-.182-1.366c5.794-1.579,9.74-4.555,11.728-8.843a17.432,17.432,0,0,0,1.507-6.731,27.908,27.908,0,0,0-.587-6.5,34.679,34.679,0,0,0-2.142-6.892.7.7,0,0,1,1.261-.584,36.148,36.148,0,0,1,2.241,7.189,29.311,29.311,0,0,1,.616,6.835,18.813,18.813,0,0,1-1.635,7.272c-2.169,4.678-6.417,7.907-12.624,9.6A.694.694,0,0,1,396.158,1342.325Z" transform="translate(-359.509 -1212.386)" fill="#213a33"/><path d="M256.555,869.469a.7.7,0,0,1-.161-1.371,2.378,2.378,0,0,0,1.595-1.075c.68-1.136.369-2.916-.012-4.208a16.664,16.664,0,0,0-1.14-2.832.7.7,0,0,1,1.226-.655,17.889,17.889,0,0,1,1.247,3.094c.667,2.268.624,4.055-.128,5.313a3.744,3.744,0,0,1-2.464,1.715A.7.7,0,0,1,256.555,869.469Z" transform="translate(-232.869 -802.316)" fill="#213a33"/><path d="M388.331,521.081l-38.918.068a7.781,7.781,0,0,1-7.8-7.77l-.127-88.945a7.781,7.781,0,0,1,7.768-7.792l38.918-.068a7.781,7.781,0,0,1,7.8,7.77l.126,88.946a7.78,7.78,0,0,1-7.767,7.792" transform="translate(-309.917 -400.374)" fill="#fff"/><path d="M411.756,541.719l-38.046.067a5.747,5.747,0,0,1-5.757-5.738l-.127-88.31a5.746,5.746,0,0,1,5.736-5.754l38.046-.067a5.747,5.747,0,0,1,5.757,5.739l.127,88.309a5.747,5.747,0,0,1-5.737,5.754" transform="translate(-333.807 -423.364)" fill="#d8a43d"/><path d="M298.882,867.805a25.089,25.089,0,0,1,4.047,7.894c2.85,8.987-1.088,35.861-3.143,36.43l-2.257-13.6Z" transform="translate(-270.038 -809.709)" fill="#dfa479"/><path d="M851.224,1331.231a2.372,2.372,0,0,0,.666,2.62c2.731,2.24,9.633-1.513,10.375-4.567a4.75,4.75,0,0,0,.09-2.319c-.941-3.573-3.72-4.955-5.374-3.437-1.2,1.1-5.017,4.824-5.757,7.7" transform="translate(-772.209 -1222.566)" fill="#dfa479"/><path d="M838.963,1168.243c1.853-.864,4.546,1.546,4.82,3.417.8,5.5-3.221,9.024-8.043,11.685-4.311,2.379-7.074.826-6.051-3.975.818-3.838,5.695-9.457,9.274-11.128" transform="translate(-752.594 -1082.087)" fill="#dfa479"/><path d="M851.69,998.9c1.217-1,3.464-.154,4.294,1.169,1.547,2.466,1.285,5.1.55,7.96a13.907,13.907,0,0,1-4.219,6.3c-3.587,3.374-6.649,2.555-6.848-2.349-.159-3.921,3.172-10.574,6.224-13.079" transform="translate(-767.095 -928.231)" fill="#dfa479"/><path d="M485.361,1186.162a.668.668,0,0,0-.643-.757c-.327,0-.635.245-.634.758s.309.757.636.756a.667.667,0,0,0,.641-.757m-1.93,0a1.292,1.292,0,1,1,1.289,1.333,1.278,1.278,0,0,1-1.289-1.333" transform="translate(-438.679 -1097.297)" fill="#0e382c"/><path d="M519.7,1186.7H520c.3,0,.444-.133.444-.381s-.155-.355-.445-.355H519.7Zm.205.42h-.2v.875h-.617l0-2.547h1.033c.613,0,.983.268.984.806a.791.791,0,0,1-.569.808l.632.932h-.714Z" transform="translate(-471.021 -1097.857)" fill="#0e382c"/><path d="M550.494,1186.685c0-.534-.288-.746-.647-.745h-.276l0,1.492h.276c.362,0,.645-.208.645-.747m-.637-1.273a1.274,1.274,0,1,1,0,2.547h-.9l0-2.547Z" transform="translate(-498.117 -1097.826)" fill="#0e382c"/><path d="M581.071,1185.888v.488h.76v.467h-.76v.56h.886v.516l-1.5,0,0-2.547,1.5,0v.516Z" transform="translate(-526.692 -1097.789)" fill="#0e382c"/><path d="M605.648,1186.6h.294c.3,0,.444-.133.444-.381s-.155-.355-.445-.355h-.294Zm.2.419h-.2v.875h-.618l0-2.547h1.033c.613,0,.984.268.984.806a.792.792,0,0,1-.569.808l.632.932H606.4Z" transform="translate(-548.987 -1097.768)" fill="#0e382c"/><path d="M644.706,1186.881l-.292-.9-.289.9Zm.126.4H644l-.179.56h-.606l.893-2.549h.692l.9,2.546h-.682Z" transform="translate(-583.624 -1097.72)" fill="#0e382c"/><path d="M678.734,1185.249l0,2.547h-.617v-1.047h-.894v1.047h-.617l0-2.547h.617v.994l.894,0v-.994Z" transform="translate(-613.919 -1097.678)" fill="#0e382c"/><path d="M709.576,1185.734v.488h.761v.467h-.761v.56h.886v.517l-1.5,0,0-2.547,1.5,0v.517Z" transform="translate(-643.267 -1097.648)" fill="#0e382c"/><path d="M732.164,1186.778l-.292-.9-.289.9Zm.126.4h-.836l-.179.56h-.606l.894-2.548h.693l.9,2.546h-.682Z" transform="translate(-662.961 -1097.627)" fill="#0e382c"/><path d="M765.6,1186.433c0-.534-.288-.746-.646-.746h-.276l0,1.492h.276c.362,0,.645-.208.645-.746m-.636-1.273a1.274,1.274,0,1,1,0,2.547h-.9l0-2.547Z" transform="translate(-693.253 -1097.598)" fill="#0e382c"/><path d="M511.3,1237.662a.667.667,0,0,0-.643-.756c-.327,0-.635.244-.634.757s.309.757.636.756a.668.668,0,0,0,.641-.758m-1.93,0a1.292,1.292,0,1,1,1.289,1.333,1.277,1.277,0,0,1-1.289-1.333" transform="translate(-462.207 -1144.015)" fill="#0e382c"/><path d="M547.15,1236.937l0,2.547h-.61l-.977-1.57,0,1.571h-.549l0-2.547h.635l.952,1.423,0-1.424Z" transform="translate(-494.545 -1144.568)" fill="#0e382c"/><path d="M588.344,1237.417h-.621l0,2.02h-.617l0-2.02h-.617v-.527l1.855,0Z" transform="translate(-532.167 -1144.525)" fill="#0e382c"/><path d="M616.05,1236.857l0,2.547h-.617v-1.047h-.893v1.048h-.617l0-2.547h.617v.994h.893v-.994Z" transform="translate(-557.054 -1144.495)" fill="#0e382c"/><path d="M646.892,1237.342v.488h.761v.466h-.761v.56h.886v.516l-1.5,0,0-2.547,1.5,0v.517Z" transform="translate(-586.402 -1144.466)" fill="#0e382c"/><path d="M680.649,1238.373l-.291-.9-.289.9Zm.126.4h-.836l-.178.559h-.606l.894-2.548h.692l.9,2.546h-.682Z" transform="translate(-616.23 -1144.432)" fill="#0e382c"/><path d="M713.861,1237.679c0-.259-.155-.413-.46-.412h-.233v.854h.233a.411.411,0,0,0,.459-.442m.652-.052a.9.9,0,0,1-.981.967h-.362v.707h-.617l0-2.547h.98c.617,0,.983.289.984.874" transform="translate(-646.524 -1144.401)" fill="#0e382c"/><path d="M742.457,1237.646c0-.258-.155-.413-.46-.412h-.233v.854H742a.411.411,0,0,0,.459-.442m.652-.052a.9.9,0,0,1-.981.967h-.362v.706h-.617l0-2.547h.98c.617,0,.983.289.984.873" transform="translate(-672.465 -1144.371)" fill="#0e382c"/><path d="M469.44,695.878A18.91,18.91,0,1,1,450.7,676.8a18.91,18.91,0,0,1,18.743,19.076" transform="translate(-391.679 -636.439)" fill="#00693b"/><path d="M504.358,745.541s1.022,1.591,9.2,1.664c7.522.066,8.464-1.508,8.464-1.508l4.078-34.567s-2.953-1-12.59-1.087-12.467.913-12.467.913Z" transform="translate(-454.656 -666.589)" fill="#fff"/><path d="M513.76,648.989l-.074-2.257c-.182-.388-1.624-.949-1.624-.949l-.319-2.641s.3-2.282-11.756-2.391h-.023c-12.058-.1-11.8,2.183-11.8,2.183l-.365,2.635a3.217,3.217,0,0,0-1.641.92l-.112,2.085s-.15.982,3.185,1.327c3.76.388,11.023.238,11.023.238l0-.093a94.045,94.045,0,0,0,10.3.043c3.23-.282,3.207-1.1,3.207-1.1" transform="translate(-441.052 -603.733)" fill="#fff"/><path d="M513.953,710.075c-2.624-.963-12.606-1.032-12.606-1.032s-9.978-.108-12.619.81.273,1.6.273,1.6l-.081-.911c2.693-1.409,12.424-1.209,12.424-1.209s9.826-.027,12.494,1.429l-.082.91s2.821-.628.2-1.592" transform="translate(-442.48 -665.684)" fill="#d6d4d3"/><path d="M513.245,709.013c-10.319-.091-12.495.773-12.495.773l.08.721c2.694-1.409,12.424-1.209,12.424-1.209s9.821.015,12.49,1.472l.07-.743s-2.1-.921-12.569-1.014" transform="translate(-454.39 -665.654)" fill="#e8e9e9"/><path d="M569.173,807.676a7.457,7.457,0,1,1-7.391-7.522,7.457,7.457,0,0,1,7.391,7.522" transform="translate(-502.931 -748.338)" fill="#006241"/><path d="M834.47,1070.068a4.056,4.056,0,0,1-2.637-.839c-.917-.752-.694-1.352-.556-1.576.406-.656,1.368-.415,1.779-.312a21.17,21.17,0,0,1,3.208,1.214l1.9.851-2.026.461A7.525,7.525,0,0,1,834.47,1070.068Zm-2.862-3.3a.7.7,0,0,1-.674-.868c.586-2.28,2.852-4.942,4.65-6.773a.7.7,0,1,1,.992.974c-1.374,1.4-3.759,4.059-4.3,6.145A.7.7,0,0,1,831.608,1066.768Zm-1.372-8.182a1.274,1.274,0,0,1-.39-.061c-1.018-.324-1.316-1.738-.838-3.98a14.119,14.119,0,0,1,2.343-4.855,25.8,25.8,0,0,1,4.014-4.494,14.659,14.659,0,0,1,3.3-2.264l1.655-.772-.723,1.677a77.649,77.649,0,0,1-5.916,11.647C832.283,1057.584,831.173,1058.586,830.237,1058.586Zm7.2-13.279c-.378.279-.765.592-1.156.935a24.371,24.371,0,0,0-3.791,4.245,12.772,12.772,0,0,0-2.123,4.349,4.333,4.333,0,0,0-.076,2.344C830.655,1057.049,832.713,1055.865,837.438,1045.307Zm-5.609-.853h-.037c-1.149-.038-1.462-1.8-1.522-3.275a14.77,14.77,0,0,1,1.141-5.479,25.563,25.563,0,0,1,2.929-5.482l1.539-2.159-.281,2.636a75.5,75.5,0,0,1-1.665,10.429C833.317,1043.453,832.686,1044.454,831.829,1044.454Zm2.018-10.765a24.374,24.374,0,0,0-1.139,2.51,13.2,13.2,0,0,0-1.049,4.923,6.783,6.783,0,0,0,.23,1.643C832.268,1042.049,833.044,1039.908,833.847,1033.689Z" transform="translate(-752.594 -957.407)" fill="#213a33"/><path d="M805.932,380.418a.317.317,0,0,0-.024-.038,4,4,0,0,0-1.391-1.26c-1.585-.916-3.307-.473-4.864.242-.171.078-.34.161-.508.244q-.168-.23-.346-.454a5.448,5.448,0,0,0-3.471-2.223,4.15,4.15,0,0,0-2.514.452,3.408,3.408,0,0,0-1.723,2.333,6.025,6.025,0,0,0-.114.8,7.428,7.428,0,0,0,.134,2.04c.027.133.056.264.087.4a14.087,14.087,0,0,0,.99,2.687c.2.425.413.846.631,1.263.014.028.029.055.043.083q.2.376.4.748c.058.106.116.213.175.318.619,1.126,1.27,2.236,1.89,3.355.355.641,1.3.581,2.366.239a17.713,17.713,0,0,0,4.005-2.062,11.525,11.525,0,0,0,1-.819c.326-.3.657-.63.982-.988a13.969,13.969,0,0,0,1.679-2.254c1.021-1.732,1.512-3.626.575-5.1" transform="translate(-717.651 -364.379)" fill="#00693b"/><path d="M1062.076,257.612a5.8,5.8,0,0,0-.586,1.007c-.084.182-.156.363-.217.535a4.769,4.769,0,0,0-.15.514,7.322,7.322,0,0,0-.134,1.862c.043.462.174.832.476.863.527.054,1.056.121,1.586.174l.15.015c.117.011.234.022.35.031l.039,0c.195.015.389.028.584.035a5.837,5.837,0,0,0,1.185-.06c.055-.009.11-.019.165-.031a3.081,3.081,0,0,0,.8-.281,2.508,2.508,0,0,0,.286-.173,1.412,1.412,0,0,0,.609-1.036,1.719,1.719,0,0,0-.237-1.032,2.258,2.258,0,0,0-1.412-.961q-.114-.032-.229-.058c0-.077.008-.155.011-.233a2.137,2.137,0,0,0-.7-1.893,1.659,1.659,0,0,0-.707-.325l-.018,0a2.039,2.039,0,0,0-1.85,1.049" transform="translate(-962.597 -255.204)" fill="#00693b"/><path d="M996.837,370.857l.556-5.158a.207.207,0,0,0-.359-.163L993.3,369.58a.208.208,0,0,1-.245.045l-4.38-2.165a.208.208,0,0,0-.274.286l2.6,4.743a.207.207,0,0,1-.033.244l-3.633,3.747a.208.208,0,0,0,.2.347l4.973-1.139a.208.208,0,0,1,.225.1l2.63,4.422a.208.208,0,0,0,.384-.075l.775-5.13a.208.208,0,0,1,.153-.17l4.615-1.212a.208.208,0,0,0,.039-.387l-4.372-2.167a.208.208,0,0,1-.114-.208" transform="translate(-895.741 -354.014)" fill="#d8a43d"/><path d="M945.131,280.29l-.917-1.96a.087.087,0,0,0-.163.019l-.458,2.25a.087.087,0,0,1-.078.069l-2.031.174a.087.087,0,0,0-.036.161l1.952,1.131a.087.087,0,0,1,.041.094l-.486,2.122a.087.087,0,0,0,.145.082l1.528-1.481a.086.086,0,0,1,.1-.014l1.894,1.009a.087.087,0,0,0,.121-.11l-.832-2a.086.086,0,0,1,.018-.093l1.385-1.43a.087.087,0,0,0-.07-.147l-2.028.172a.086.086,0,0,1-.086-.05" transform="translate(-854.131 -274.92)" fill="#d8a43d"/></g><text transform="translate(173 454.249)" fill="#0e6241" font-size="18" font-family="SourceHanSansTW-Medium, Source Han Sans TW" opacity="0" font-weight="500"><tspan x="24" y="21">行動預點</tspan><tspan y="21" xml:space="preserve" font-size="16" font-family="FontAwesome6Pro-Regular, 'Font Awesome \36  Pro'" font-weight="400"> </tspan></text><path d="M40.65,6.942H31.92v1.6h8.73ZM28.752,5.88a16.287,16.287,0,0,1-4.1,3.87A7.653,7.653,0,0,1,25.6,11.1a23.756,23.756,0,0,0,4.752-4.554Zm.7,3.852a19.1,19.1,0,0,1-4.986,5.4,9.278,9.278,0,0,1,1.152,1.422,23.825,23.825,0,0,0,1.782-1.62v7.524h1.674V13.08a24.289,24.289,0,0,0,1.962-2.754Zm11.7,2.124h-9.99v1.6h5.688V20.37c0,.252-.108.342-.45.342-.324.018-1.53.018-2.682-.018a6.715,6.715,0,0,1,.54,1.674,11.249,11.249,0,0,0,3.4-.27c.684-.27.9-.756.9-1.71v-6.93h2.592Zm6.894,6.84h3.384V17.472H48.048v-.918H51.4V11.136H48.048V10.2h3.564v1.35H53.52c-.144,3.276-.594,5.994-2.07,8.028-1.134.126-2.286.234-3.4.342Zm-3.384-3.24v-1.1h1.854v1.1Zm5.31-1.1v1.1H48.048v-1.1Zm-1.926-1.026v-1.1h1.926v1.1Zm-3.384-1.1h1.854v1.1H44.664ZM55.158,10c.018-1.224.036-2.52.036-3.852h-1.6c0,1.35,0,2.628-.018,3.852h-1.89V8.958H48.048V7.806c1.242-.126,2.43-.306,3.384-.5l-.792-1.26a55.993,55.993,0,0,1-7.722.882,4.982,4.982,0,0,1,.4,1.206c1.008-.036,2.106-.09,3.2-.18V8.958H42.81V10.2h3.708v.936H43.3v5.418h3.222v.918H43.242V18.7h3.276v1.368c-1.422.126-2.718.234-3.762.306l.216,1.422c1.926-.18,4.518-.45,7.11-.756a3.954,3.954,0,0,1-.324.252,5.628,5.628,0,0,1,1.206,1.242c3.1-2.376,3.906-6.192,4.14-10.98h2.124c-.144,6.192-.324,8.478-.72,8.982a.682.682,0,0,1-.648.288c-.324,0-1.062,0-1.89-.072a4.425,4.425,0,0,1,.468,1.584,12.607,12.607,0,0,0,2.214-.018,1.59,1.59,0,0,0,1.278-.774c.576-.774.738-3.33.936-10.764,0-.2.018-.774.018-.774ZM74.94,12.324H70.26V10.83h4.68Zm0,2.682H70.26V13.494h4.68Zm0,2.682H70.26V16.176h4.68Zm-6.228-8.1v9.36h7.83V9.588h-3.51c.144-.468.306-.972.468-1.494h3.618V6.672H68.046V8.094h3.6c-.072.486-.18,1.008-.27,1.494Zm-1.62,7.056c.45-1.008.954-2.628,1.4-4.05l-1.044-.252-.234.054h-1.08l.432-.594a10.223,10.223,0,0,0-1.26-1.026,19.272,19.272,0,0,0,2.7-3.438l-1.026-.72-.306.09h-5.6V8.166h4.536A13.506,13.506,0,0,1,64.1,9.984c-.576-.342-1.17-.684-1.728-.954l-.882,1.1A19.429,19.429,0,0,1,64.95,12.4H60.684V13.89h2.808v6.624c0,.2-.072.27-.306.27-.252.018-1.08.018-1.926,0a6.735,6.735,0,0,1,.5,1.584,7.016,7.016,0,0,0,2.61-.27c.594-.27.738-.738.738-1.566V13.89h1.53a24.359,24.359,0,0,1-.81,2.448Zm3.366,2.5A11.55,11.55,0,0,1,66.7,21.36a10.88,10.88,0,0,1,1.116,1.116A13.56,13.56,0,0,0,71.9,20.028Zm2.682.936a21.364,21.364,0,0,1,3.06,2.376l1.314-.954A21.457,21.457,0,0,0,74.4,19.236ZM84.3,11.244c.306-.666.648-1.764.99-2.646l-.918-.342a22.642,22.642,0,0,1-.738,2.736ZM80.808,8.508a11.972,11.972,0,0,1,.522,2.664l.81-.252a13.235,13.235,0,0,0-.576-2.61Zm-.144-.828H82.41v4.14H80.664Zm4.662,4.14H83.49V7.68h1.836Zm1.62,4.662h-3.24v-1.17h2.988V14H83.706V12.99H86.64V6.51H79.386v6.48H82.23V14h-2.9v1.314h2.9v1.17H79.008V17.8h7.938Zm-7.128,5.706a10.868,10.868,0,0,0,1.08-3.366l-1.116-.414A10.216,10.216,0,0,1,78.63,21.7Zm1.6-3.348a14.478,14.478,0,0,1,.216,3.114l1.116-.144a15.9,15.9,0,0,0-.27-3.1Zm1.818-.018a12.886,12.886,0,0,1,.72,2.934l1.08-.252a14.392,14.392,0,0,0-.774-2.88Zm1.8-.036a11.471,11.471,0,0,1,1.17,2.844l1.1-.414a11.289,11.289,0,0,0-1.224-2.808ZM93.012,20.1h-4V15.87h4Zm2.25-8.838V9.714H91.608v-3.8h-1.62v8.442H87.5V22.4h1.512V21.63h4v.7H94.6V14.358H91.608v-3.1Zm14.029,3.219-5.5-5.75a.75.75,0,0,0-1.083,1.037l5,5.232-5,5.231a.75.75,0,0,0,1.084,1.037l5.5-5.75A.752.752,0,0,0,109.291,14.481Zm6,0-5.5-5.75a.75.75,0,0,0-1.083,1.037l5,5.232-5,5.231a.75.75,0,0,0,1.084,1.037l5.5-5.75A.752.752,0,0,0,115.291,14.481Z" transform="translate(173 454.249)" fill="#0e6241"/></g><g transform="translate(1018.998 626.46)"><path d="M118.856,584.713a59.428,59.428,0,1,0-59.428,59.428,59.428,59.428,0,0,0,59.428-59.428" transform="translate(27.935 -510.201)" fill="#0e382c"/><g transform="translate(30.934 9.518)"><path d="M52.088,145.473l-3.8-3.961-4.946,2.381,2.6-4.83-3.8-3.961,5.408.977,2.6-4.83.746,5.433,5.406.977-4.946,2.381Z" transform="translate(-39.467 -79.503)" fill="#d2a04a"/><path d="M162.047,64.025c-.839-.838-2.036-4.4-.965-5.345s15.848-2.717,21.727-2.83,18.447-.21,19.7,1.256,1.14,4.3,1.039,5.555c2.725,7.136,4.926,15.827,4.821,21.331s.113,15.878,0,19.023-1.26,18.342-1.157,22.011-.627,15.9-2.3,18.432-13.2,7.352-20.383,7.352-17.089,0-20.927-2.655c-3.068-2.124-1.559-67.98-1.559-67.98Z" transform="translate(-103.977 -60.793)" fill="#679f7d"/><path d="M155.718,73.973c2,0,6.918,7.756,7.337,10.062s-.839,72.217-3.146,73.789-12.892-4.507-13.205-6.385,2.2-59.962,2.943-63.84S153.622,73.973,155.718,73.973Z" transform="translate(-96.729 -70.217)"/><ellipse cx="6.839" cy="5.763" rx="6.839" ry="5.763" transform="matrix(0.589, -0.808, 0.808, 0.589, 78.031, 67.474)" fill="#003f29"/><path d="M194.029,141.317a.585.585,0,0,1-.579-.674c.252-1.634,2.155-4.968,4.523-7.927a59.585,59.585,0,0,1,4.5-4.394c2.882-2.673,6.468-6,9.188-9.083,3.773-4.277,4.17-6.174,3.838-7.011-.015-.037-.046-.116-.293-.153a3.59,3.59,0,0,0-1.2.108,32.531,32.531,0,0,0-3.914,1.289c-3.251,1.208-6.321,2.349-7.733,1.195a1.328,1.328,0,0,1-.478-.967c-.076-1.109.912-2.856,3.2-5.665,1.849-2.268,4.2-4.8,6.283-7.034,1.9-2.04,3.538-3.8,4.2-4.732a.585.585,0,0,1,.954.677c-.7.993-2.369,2.781-4.3,4.852-2.066,2.221-4.409,4.738-6.233,6.977-2.626,3.222-2.97,4.419-2.941,4.846.007.105.037.129.051.141.247.2.867.366,2.412,0a38.906,38.906,0,0,0,4.174-1.384,33.186,33.186,0,0,1,4.073-1.336c.575-.125,2.326-.505,2.825.758.675,1.708-.611,4.318-4.049,8.215-2.759,3.128-6.369,6.476-9.27,9.167-2,1.859-3.735,3.464-4.378,4.267-2.436,3.044-4.09,6.14-4.28,7.374A.585.585,0,0,1,194.029,141.317Z" transform="translate(-121.275 -81.949)"/><path d="M175.617,72.678c-.749,0-1.21-.145-1.394-.556a.818.818,0,0,1,.048-.759c.143-.248.523-.908,4.476-1.818a69.467,69.467,0,0,1,7.9-1.282c6.079-.64,18.416-.638,22.374,0a.585.585,0,0,1-.187,1.155c-3.808-.618-16.181-.615-22.065,0a68.865,68.865,0,0,0-7.616,1.226,22.783,22.783,0,0,0-2.942.829c.248-.019.55-.048.92-.093,1.117-.135,2.575-.373,4.12-.624A79.623,79.623,0,0,1,191.3,69.542c6.011-.13,12.206-.234,12.267-.235a.585.585,0,1,1,.02,1.17c-.062,0-6.254.1-12.262.235a78.878,78.878,0,0,0-9.892,1.206c-1.809.295-3.371.549-4.565.676A12.263,12.263,0,0,1,175.617,72.678Z" transform="translate(-111.275 -67.314)"/><path d="M259.047,84.988l-7.2-3.974-6.017,5.607L247.4,78.56l-7.2-3.974,8.167-1.008,1.566-8.062,3.482,7.438,8.167-1.01-6.015,5.607Z" transform="translate(-145.209 -65.833)" fill="#d2a04a"/><g transform="translate(2)"><path d="M116.829,123.915l-.631,8.246-1.807,23.624L111.5,193.522H81.759L80.775,179.3l-1.138-16.481-2.689-38.9Z" transform="translate(-60.584 -91.105)" fill="#d2a04a"/><ellipse cx="14.873" cy="4.443" rx="14.873" ry="4.443" transform="translate(21.175 97.974)" fill="#d2a04a"/><ellipse cx="21.224" cy="4.873" rx="21.224" ry="4.873" transform="translate(14.824 23.851)" fill="#d2a04a"/><path d="M117.778,89.263a.577.577,0,0,0-.019-.139h.017l-.361-20.751-3.786.066.361,20.751h.017a.563.563,0,0,0-.013.139c.009.614.866,1.1,1.912,1.078S117.789,89.878,117.778,89.263Z" transform="translate(-79.599 -62.314)" fill="#006241"/><path d="M119.092,141.036l-1.807,23.624c-7.014,6.864-22.295,18.524-33.615,23.51L82.531,171.7C92.525,167.417,112.076,149.966,119.092,141.036Z" transform="translate(-63.478 -99.98)" fill="#e3ae66"/><circle cx="10.586" cy="10.586" r="10.586" transform="translate(25.719 57.636)" fill="#006241"/><path d="M99.43,122.3a75.408,75.408,0,0,1-10.516-.856,61.492,61.492,0,0,1-12.553-2.969.585.585,0,0,1,.434-1.086,60.331,60.331,0,0,0,12.288,2.9,61.856,61.856,0,0,0,13.226.73c9.294-.833,12.672-2.347,13.693-2.959a.585.585,0,0,1,.6,1c-2.3,1.382-7.476,2.52-14.19,3.121C101.525,122.264,100.522,122.3,99.43,122.3Z" transform="translate(-60.392 -88.005)"/><path d="M100.1,136.58h-.277a65.447,65.447,0,0,1-9.73-.924,25.709,25.709,0,0,1-7.277-1.987.585.585,0,0,1,.6-1.007c2.157,1.277,10.751,2.715,16.419,2.748a71.092,71.092,0,0,0,9.748-.714,33.836,33.836,0,0,0,7.365-1.648.585.585,0,1,1,.46,1.075C114.407,135.4,106.077,136.58,100.1,136.58Z" transform="translate(-63.777 -95.899)"/><path d="M73.75,114.125v5.5c0,2.691,9.5,4.873,21.22,4.873s21.22-2.182,21.22-4.873v-5.5Z" transform="translate(-58.927 -86.03)" fill="#d2a04a"/><ellipse cx="1.893" cy="1.112" rx="1.893" ry="1.112" transform="matrix(1, -0.017, 0.017, 1, 34.013, 5.01)" fill="#006241"/></g><path d="M164.382,264.014a5.459,5.459,0,0,1-6.289-1.412c-1.912-2.163-1.855-4.751-.86-5.838a7.767,7.767,0,0,0,3.365,4C161.522,261.177,163.76,262.486,164.382,264.014Z" transform="translate(-73.391 -160.792)" fill="#679f7d"/><path d="M166.344,262.829a2.288,2.288,0,0,1-.254.229c-.885-2.013-3.891-3.392-4.032-3.457a7.228,7.228,0,0,1-3.138-3.844c2.092-1.155,3.6,2.148,4.475,2.46S167.672,261.43,166.344,262.829Z" transform="translate(-74.619 -160.143)" fill="#679f7d"/><path d="M265.675,239.828c-.376,1.852-2.391,3.617-5.313,3.337-2.982-.284-8.655-1.6-6.417-5.885a.306.306,0,0,0,.092.026,5.816,5.816,0,0,1,2.849,1.333,6.029,6.029,0,0,0,1.93,1.069,12.355,12.355,0,0,0,2.973.327,13.125,13.125,0,0,0,1.775-.111,11.019,11.019,0,0,1,2.111-.1Z" transform="translate(-147.608 -135.405)" fill="#1a3c34"/><path d="M258.093,235.656a6.57,6.57,0,0,0-2.963-1.418c1.1-1.63,3.142-2.469,6.556-1.249s4.967,2.1,4.931,3.756a11.545,11.545,0,0,0-2.253.1,13.135,13.135,0,0,1-4.53-.2A5.671,5.671,0,0,1,258.093,235.656Z" transform="translate(-148.487 -132.879)" fill="#1a3c34"/><path d="M246.385,257.992a12.855,12.855,0,0,0-1.829.828c-.4-1.844,1.5-4.071,3.038-5.1,1.636-1.089,3.808-1.73,5.527-.969a13.959,13.959,0,0,0-1.531,1,7.6,7.6,0,0,0-.978,1.076,9.336,9.336,0,0,1-2.629,2.46A13.262,13.262,0,0,1,246.385,257.992Z" transform="translate(-142.977 -143.251)" fill="#1a3c34"/><path d="M253.547,258.892c-1.677,1.7-5,5.9-8.306,1.521a2.388,2.388,0,0,1-.225-.361,11.655,11.655,0,0,1,1.84-.843,13.933,13.933,0,0,0,1.673-.751,9.847,9.847,0,0,0,2.787-2.6,7.433,7.433,0,0,1,.894-.993,15.849,15.849,0,0,1,1.748-1.114C255.688,254.948,255.209,257.2,253.547,258.892Z" transform="translate(-143.244 -143.944)" fill="#1a3c34"/></g><text transform="translate(18 140.816)" fill="#0e6241" font-size="18" font-family="SourceHanSansTW-Medium, Source Han Sans TW" opacity="0" font-weight="500"><tspan x="33" y="21">金星禮</tspan><tspan y="21" xml:space="preserve" font-size="16" font-family="FontAwesome6Pro-Regular, 'Font Awesome \36  Pro'" font-weight="400"> </tspan></text><path d="M38.4,11.172a16.283,16.283,0,0,0,3.618-2.916,20.157,20.157,0,0,0,3.816,2.916Zm8.244,1.548v-1.1a18.557,18.557,0,0,0,2.682,1.224,8.047,8.047,0,0,1,1.152-1.458A19.158,19.158,0,0,1,42.99,7.122c.162-.216.306-.45.468-.684l-1.566-.7c-1.71,2.646-4.968,4.626-8.316,5.652a6.486,6.486,0,0,1,1.116,1.548,22.517,22.517,0,0,0,2.61-1.152v.936h3.762V14.9h-5.94V16.41h5.94v4.014H34.3v1.53H49.74v-1.53H42.846V16.41h6.03V14.9h-6.03V12.72Zm-1.152,7.632c.612-.81,1.4-2.034,2.088-3.168l-1.62-.594a16.894,16.894,0,0,1-1.746,3.222Zm-9-3.222a15.166,15.166,0,0,1,1.6,3.2l1.458-.63A14.13,14.13,0,0,0,37.86,16.59Zm19.152-6.714h8.64v1.332h-8.64Zm0-2.52h8.64V9.174h-8.64ZM60.9,20.514V18.858h5.022V17.544H60.9V16.122h5.8v-1.4H60.9v-1.3H59.172v1.3h-3.15c.234-.414.486-.828.684-1.242l-1.4-.414h10.71V6.582H54.006v6.48h1.026a10.623,10.623,0,0,1-3.15,3.906A9.249,9.249,0,0,1,53.3,17.994a14.822,14.822,0,0,0,1.746-1.872h4.122v1.422H54.348v1.314h4.824v1.656H52.206v1.44H67.83v-1.44ZM84.1,9.444H82.7V8.382h1.4Zm0,2.088H82.7v-1.08h1.4Zm-6.318-1.08h1.368v1.08H77.784Zm0-2.07h1.368V9.444H77.784Zm3.8,2.07v1.08H80.268v-1.08ZM80.268,9.444V8.382h1.314V9.444Zm5.238-2.106H82.9V5.916H81.582V7.338H80.268V5.916H78.954V7.338H76.416v5.256h9.09Zm.54,6.03H75.822V14.61H86.046ZM78.36,16.446h5.166v1.332H78.36Zm6.606,2.394V15.4h-8.01V18.84Zm-8.91-3.06c-.342-.378-1.53-1.782-2.2-2.448a17.137,17.137,0,0,0,1.89-3.87l-.864-.594L74.6,8.94H72.942L74,8.22a10.262,10.262,0,0,0-1.512-2.25l-1.224.774a13.587,13.587,0,0,1,1.368,2.2H69.99v1.512h3.8a13.585,13.585,0,0,1-4.158,5.166,7.2,7.2,0,0,1,.7,1.674A16.525,16.525,0,0,0,72.1,15.636v6.786h1.53V15.186c.522.72,1.08,1.494,1.386,1.98Zm7.182,5.04c.288-.468.612-1.008.918-1.548l-1.494-.414a18.665,18.665,0,0,1-.792,1.962H80.034a13.614,13.614,0,0,0-.774-1.944l-1.278.378c.2.486.432,1.062.612,1.566H75.5V22.1H86.244V20.82Zm17.053-6.339-5.5-5.75a.75.75,0,0,0-1.083,1.037l5,5.232-5,5.231a.75.75,0,0,0,1.084,1.037l5.5-5.75A.752.752,0,0,0,100.291,14.481Zm6,0-5.5-5.75a.75.75,0,0,0-1.083,1.037l5,5.232-5,5.231a.75.75,0,0,0,1.084,1.037l5.5-5.75A.752.752,0,0,0,106.291,14.481Z" transform="translate(18 140.816)" fill="#0e6241"/></g><g transform="translate(729.998 352.04)"><path d="M118.856,584.713a59.428,59.428,0,1,0-59.428,59.428,59.428,59.428,0,0,0,59.428-59.428" transform="translate(159.204 -201.78)" fill="#0e382c"/><g clip-path="url(#e)"><g transform="translate(149 309.22)"><path d="M70,0,53.477,50.854H0L43.264,82.285,26.739,133.142,70,101.711l43.262,31.431L96.738,82.285,140,50.854H86.525Z" fill="#d59833"/><path d="M223.624,268.248l-38.956-28.3H232.82l14.879-45.79,14.878,45.79h48.149l-38.953,28.3,14.879,45.792-38.954-28.3-38.954,28.3Z" transform="translate(-177.697 -186.828)" fill="#b4e99e"/><path d="M403.984,454.211,369.337,429.04h42.826L425.4,388.314l13.233,40.726h42.824l-34.645,25.171,13.233,40.727L425.4,469.768,390.75,494.939Z" transform="translate(-355.395 -373.656)" fill="#006241"/><path d="M584.344,640.174l-30.338-22.041h37.5l11.588-35.662,11.587,35.662h37.5l-30.337,22.041,11.588,35.663L603.093,653.8l-30.337,22.041Z" transform="translate(-533.092 -560.484)" fill="#baf1d0"/><path d="M764.7,826.136l-26.03-18.911h32.175l9.942-30.6,9.942,30.6H822.9l-26.028,18.911,9.942,30.6L780.79,837.824l-26.029,18.911Z" transform="translate(-710.789 -747.312)" fill="#d59833"/><path d="M945.063,1012.1l-21.722-15.781H950.19l8.3-25.533,8.3,25.533h26.848l-21.72,15.781,8.3,25.534-21.72-15.781-21.721,15.781Z" transform="translate(-888.486 -934.139)" fill="#b4e99e"/><path d="M1136.185,1205.88l-17.412,12.651,6.651-20.469-17.413-12.651h21.523l6.651-20.469,6.651,20.469h21.522l-17.412,12.651,6.651,20.469Z" transform="translate(-1066.183 -1120.967)" fill="#006241"/><path d="M1305.783,1384.025l-13.1-9.521h16.2l5.005-15.4,5.005,15.4h16.2l-13.1,9.52,5.005,15.4-13.1-9.52-13.1,9.52Z" transform="translate(-1243.881 -1307.796)" fill="#baf1d0"/><path d="M1491.579,1573.936l-8.8,6.39,3.36-10.34-8.8-6.39h10.872l3.36-10.34,3.36,10.34h10.872l-8.8,6.39,3.36,10.34Z" transform="translate(-1421.578 -1494.623)" fill="#d59833"/></g></g><text transform="translate(149 447.93)" fill="#0e6241" font-size="18" font-family="SourceHanSansTW-Medium, Source Han Sans TW" opacity="0" font-weight="500"><tspan x="24" y="21">專屬活動</tspan><tspan y="21" xml:space="preserve" font-size="16" font-family="FontAwesome6Pro-Regular, 'Font Awesome \36  Pro'" font-weight="400"> </tspan></text><path d="M33.792,14.3h2.214l-.414.342a9.567,9.567,0,0,1,1.1.468l-2.9.036ZM28.374,13.26v-.936h3.78v.936Zm0-2.862h3.78v.9h-3.78Zm9.324,0v.9H33.792v-.9Zm0,2.862H33.792v-.936H37.7Zm3.42,3.906H36.96v-.972l1.566-.036a9.145,9.145,0,0,1,.936.666l.99-.9a14.86,14.86,0,0,0-2.79-1.62h1.674V9.318H33.792V8.472h6.642v-1.3H33.792V5.916H32.154v1.26H25.4v1.3h6.75v.846H26.79V14.3h5.364v.846c-2.5.018-4.806.036-6.534.036l.054,1.26c2.556-.036,6.048-.108,9.648-.2v.918H24.9v1.35h3.654l-.81.7a14.9,14.9,0,0,1,2.826,2.34l1.224-1.08a14.006,14.006,0,0,0-2.448-1.962h5.976v2.16c0,.216-.072.288-.36.306-.27.018-1.3.018-2.286-.018A5.551,5.551,0,0,1,33.2,22.4a10.4,10.4,0,0,0,2.952-.216c.648-.234.81-.666.81-1.458V18.516h4.158Zm14.238,2.682v-2.2H52.1V17.04h4.878c-.144,2.61-.324,3.618-.522,3.906a.488.488,0,0,1-.45.2H55.68a8.941,8.941,0,0,0-1.116-1.3ZM52.1,20.5v-.648h1.6l-.432.2.36.36ZM54.06,19.11H52.1v-.72H54.06Zm-5.382,0v-.72h2v.72Zm2-2.07v.612H48.192a7.773,7.773,0,0,0,.7-.612ZM56.58,7.7V8.724H45.942V7.7Zm-8.5,6.066h1.89v.9h-1.89Zm3.186,0h1.962v.9H51.27Zm3.258,0h2.016v.9H54.528ZM49.776,16.05c.162-.2.306-.4.45-.612h7.7v-2.43h-11.2v2.43h1.782a9.206,9.206,0,0,1-2.988,2.376,37.994,37.994,0,0,0,.414-5.958v-2h10.89c-.774.234-2,.63-2.79.774l.36.72a13.846,13.846,0,0,0,3.078-.72l-.468-.774H58.2V6.564H44.322v5.31c0,2.826-.126,6.858-1.62,9.684a5.939,5.939,0,0,1,1.44.81,15.083,15.083,0,0,0,1.386-4.518,4.983,4.983,0,0,1,1.008.936,7.319,7.319,0,0,0,.882-.558v1.62h3.258v.738c-1.62.09-3.132.162-4.3.216l.126,1.134c2.124-.126,5.058-.342,7.9-.576.126.18.234.342.306.468l.4-.18a2.937,2.937,0,0,1,.126.648,8.286,8.286,0,0,0,1.53-.018,1.28,1.28,0,0,0,.99-.5c.4-.45.576-1.728.738-5.148.018-.18.036-.576.036-.576Zm4.032-3.834a19.72,19.72,0,0,1,3.384.774l.324-.882a17.072,17.072,0,0,0-3.456-.666Zm-.72.522v-2.61H51.54v2.61Zm-5.958.252c1.044-.2,2.484-.522,3.816-.81l-.018-.9-.72.144.324-.828a16.879,16.879,0,0,0-3.114-.63l-.288.792a16.137,16.137,0,0,1,2.97.684c-1.242.234-2.43.432-3.258.558ZM65.94,7.968A37.493,37.493,0,0,0,62.592,6.15l-.936,1.188c1.062.594,2.556,1.458,3.294,1.98Zm-.918,4.824c-.756-.486-2.286-1.278-3.312-1.782l-.918,1.242c1.08.558,2.574,1.422,3.312,1.926Zm-2.466,9.4c1.062-1.674,2.268-3.834,3.186-5.688l-1.206-1.116a53.384,53.384,0,0,1-3.384,5.688Zm12.006-2.052H68.6V16.9h5.958Zm2.646-7.416v-1.6h-4.77V8.292a24.051,24.051,0,0,0,4.05-1.044l-1.314-1.3a41.007,41.007,0,0,1-8.55,1.638,5.911,5.911,0,0,1,.486,1.4c1.188-.09,2.484-.234,3.744-.432v2.556h-5v1.6h5v2.664h-3.78V22.4H68.6v-.756h5.958v.666h1.584v-6.93H72.438V12.72Zm6.84,5.976h3.384V17.472H84.048v-.918H87.4V11.136H84.048V10.2h3.564v1.35H89.52c-.144,3.276-.594,5.994-2.07,8.028-1.134.126-2.286.234-3.4.342Zm-3.384-3.24v-1.1h1.854v1.1Zm5.31-1.1v1.1H84.048v-1.1Zm-1.926-1.026v-1.1h1.926v1.1Zm-3.384-1.1h1.854v1.1H80.664ZM91.158,10c.018-1.224.036-2.52.036-3.852h-1.6c0,1.35,0,2.628-.018,3.852h-1.89V8.958H84.048V7.806c1.242-.126,2.43-.306,3.384-.5l-.792-1.26a55.993,55.993,0,0,1-7.722.882,4.982,4.982,0,0,1,.4,1.206c1.008-.036,2.106-.09,3.2-.18V8.958H78.81V10.2h3.708v.936H79.3v5.418h3.222v.918H79.242V18.7h3.276v1.368c-1.422.126-2.718.234-3.762.306l.216,1.422c1.926-.18,4.518-.45,7.11-.756a3.955,3.955,0,0,1-.324.252,5.628,5.628,0,0,1,1.206,1.242c3.1-2.376,3.906-6.192,4.14-10.98h2.124c-.144,6.192-.324,8.478-.72,8.982a.682.682,0,0,1-.648.288c-.324,0-1.062,0-1.89-.072a4.426,4.426,0,0,1,.468,1.584,12.607,12.607,0,0,0,2.214-.018,1.59,1.59,0,0,0,1.278-.774c.576-.774.738-3.33.936-10.764,0-.2.018-.774.018-.774Zm18.133,4.479-5.5-5.75a.75.75,0,0,0-1.083,1.037l5,5.232-5,5.231a.75.75,0,0,0,1.084,1.037l5.5-5.75A.752.752,0,0,0,109.291,14.481Zm6,0-5.5-5.75a.75.75,0,0,0-1.083,1.037l5,5.232-5,5.231a.75.75,0,0,0,1.084,1.037l5.5-5.75A.752.752,0,0,0,115.291,14.481Z" transform="translate(149 447.93)" fill="#0e6241"/></g></g></g></svg>