<svg xmlns="http://www.w3.org/2000/svg" xmlns:xlink="http://www.w3.org/1999/xlink" width="375" height="550" viewBox="0 0 375 550"><defs><clipPath id="a"><rect width="375" height="290" fill="#d2a04a"/></clipPath><clipPath id="b"><rect width="375" height="231.9" fill="#f5f3f0"/></clipPath><clipPath id="c"><rect width="26.348" height="26.348" fill="none"/></clipPath><clipPath id="d"><path d="M32.384,55.127c-18.467,0-29.733,21.754-30.945,42.078v4.855a34.876,34.876,0,0,0,33.509,32.492h2.57A34.873,34.873,0,0,0,71.1,99.7c0-2.272.044-5.118.044-8.32V91.2c0-10.789-.505-25.545-4.77-36.074C61.163,42.247,46.167,55.127,32.384,55.127Z" transform="translate(-1.439 -49.403)" fill="none"/></clipPath><clipPath id="e"><path d="M6.875,47.787l-.212-.021L0,30.948,16.8,9.716,41.62,0,55.636,5.647l27.141,24.33V43.253l-6.459,3.18A34.875,34.875,0,0,1,6.875,47.787Z" fill="#0e382c" stroke="rgba(0,0,0,0)" stroke-miterlimit="10" stroke-width="1"/></clipPath></defs><g transform="translate(-208.998 -531.213)"><g transform="translate(0 260)"><rect width="375" height="491.9" transform="translate(208.998 271.214)" fill="#f5f3f0"/><g transform="translate(208.998 531.214)" clip-path="url(#a)"><ellipse cx="522.624" cy="124.152" rx="522.624" ry="124.152" transform="translate(198.038 161.199)" fill="#02754b"/><ellipse cx="446.55" cy="231.9" rx="446.55" ry="231.9" transform="translate(-359.863 191.742)" fill="#0f4d39"/></g><g transform="translate(208.998 531.214)" clip-path="url(#b)"><g transform="matrix(0.087, -0.996, 0.996, 0.087, -69.432, 208.931)"><path d="M97.355,0q-3.581,2.67-7.271,5.678C84.766,10.027,4.311,78.313,0,82.568A18.809,18.809,0,0,0,4.056,91.6c6.981,8.969,29.753,6.04,31.82,6.143,3.567-3.443,73.891-64.708,78.307-68.293,3.441-2.794,6.805-5.319,10.043-7.6-1.385-3.014-6.718-10.17-11.322-14.469C106.673,1.561,100.788.855,97.355,0" transform="translate(96.911 0) rotate(81)" fill="#ffc89f"/><g transform="matrix(0.819, 0.574, -0.574, 0.819, 103.556, 40.834)"><path d="M0,16.314a104.362,104.362,0,0,1,10.122-3.025c.687-.167,3.964-1.261,10.519-3.447,1.473-.492,2.674-.912,3.279-2.057,1.027-1.945-.174-5.016-2.158-6.554-1.659-1.287-3.631-1.318-6-1.17A59.648,59.648,0,0,0,1.629,2.737L0,16.314" transform="matrix(0.53, 0.848, -0.848, 0.53, 77.829, 64.681)" fill="#ffc89f"/><path d="M0,17.17a109.721,109.721,0,0,1,10.653-3.184c.724-.176,4.173-1.327,11.071-3.628,1.551-.517,2.814-.959,3.451-2.164,1.081-2.047-.184-5.279-2.271-6.9C21.157-.059,19.083-.092,16.594.064A62.77,62.77,0,0,0,1.715,2.881L0,17.17" transform="matrix(0.53, 0.848, -0.848, 0.53, 59.956, 63.588)" fill="#ffc89f"/><path d="M.04,17.4C-1.069,28.789,21.45,36.724,21.45,36.724a33.55,33.55,0,0,0,13.216-4.567,47.777,47.777,0,0,0,13.7-12.07s11.5-2.855,13.878-8.142c.607-1.351-.115-3.157-.594-4.823-.211-.736-1.326-3.93-10.068-5.968a47.943,47.943,0,0,0-20.885.014C21.246,3.232.993,7.612.04,17.4" transform="matrix(0.53, 0.848, -0.848, 0.53, 31.144, 33.886)" fill="#ffc89f"/><path d="M0,16.314a104.4,104.4,0,0,1,10.122-3.025c.687-.167,3.964-1.261,10.519-3.447,1.473-.491,2.674-.911,3.278-2.056,1.027-1.945-.174-5.016-2.158-6.555-1.659-1.287-3.631-1.318-6-1.17A59.658,59.658,0,0,0,1.629,2.737L0,16.314" transform="matrix(0.53, 0.848, -0.848, 0.53, 92.58, 62.268)" fill="#ffc89f"/><path d="M4.156,1.427H4.141A11.9,11.9,0,0,1,1.8,1.046,11.989,11.989,0,0,1,.15.477.248.248,0,0,1,.346.02,11.461,11.461,0,0,0,1.925.567,11.481,11.481,0,0,0,4.171.931a.248.248,0,0,1-.015.5" transform="matrix(0.53, 0.848, -0.848, 0.53, 62.964, 83.757)" fill="#eaa183"/><path d="M4.156,1.426H4.141A12.025,12.025,0,0,1,1.8,1.046,12.044,12.044,0,0,1,.15.476.248.248,0,1,1,.346.02,11.5,11.5,0,0,0,1.925.566,11.519,11.519,0,0,0,4.172.931a.248.248,0,0,1-.015.5" transform="matrix(0.454, 0.891, -0.891, 0.454, 51.132, 87.935)" fill="#eaa183"/><path d="M3.784,6.2a.248.248,0,0,1-.234-.164,15.883,15.883,0,0,0-.672-1.588A16.16,16.16,0,0,0,.068.419.248.248,0,1,1,.428.077a16.669,16.669,0,0,1,2.9,4.156,16.376,16.376,0,0,1,.693,1.638.248.248,0,0,1-.15.318.243.243,0,0,1-.084.015" transform="matrix(0.53, 0.848, -0.848, 0.53, 43.673, 78.183)" fill="#eaa183"/><path d="M40.788,97.625,4.9,91.6A5.872,5.872,0,0,1,.082,84.832L13.51,4.9A5.872,5.872,0,0,1,20.274.082L56.162,6.111a5.872,5.872,0,0,1,4.818,6.764L47.552,92.807a5.872,5.872,0,0,1-6.764,4.818" transform="matrix(0.53, 0.848, -0.848, 0.53, 105.08, 0)" fill="#1a3c34"/><path d="M.034,79,12.968,2A2.4,2.4,0,0,1,15.731.034L54.555,6.556a2.4,2.4,0,0,1,1.968,2.763l-12.935,77a2.4,2.4,0,0,1-2.762,1.968L2,81.76A2.4,2.4,0,0,1,.034,79" transform="matrix(0.53, 0.848, -0.848, 0.53, 102.292, 4.399)" fill="#006241"/><path d="M8.063,9.549C8.812,7.779,9.175,1.928,6.234.218,1.714-.835.124,2.2.015,3.534-.363,8.167,6.3,11.4,8.063,9.549" transform="matrix(0.53, 0.848, -0.848, 0.53, 57.143, 81.36)" fill="#ffc89f"/><path d="M9.948,10.032c.9-2.131,3.192-7.4-2.441-9.77C2.064-1.006.149,2.655.018,4.256c-.456,5.58,7.812,8,9.93,5.776" transform="matrix(0.53, 0.848, -0.848, 0.53, 69.584, 75.527)" fill="#ffc89f"/><g transform="matrix(0.53, 0.848, -0.848, 0.53, 89.934, 31.044)" opacity="0.5"><g clip-path="url(#c)"><path d="M24.839,12.419A12.419,12.419,0,1,1,12.42,0,12.419,12.419,0,0,1,24.839,12.419" transform="translate(0.754 0.755)" fill="#1e3932"/><path d="M13.174.755A12.419,12.419,0,1,1,.755,13.174,12.419,12.419,0,0,1,13.174.755m0-.755A13.174,13.174,0,1,0,26.348,13.174,13.189,13.189,0,0,0,13.174,0" transform="translate(0 0)" fill="#fff"/></g></g><path d="M7.771,3.775a.266.266,0,0,1-.066-.009A29.745,29.745,0,0,1,3.933,2.452,27.412,27.412,0,0,1,.116.459.248.248,0,0,1,.381.038,26.834,26.834,0,0,0,4.128,2,29.223,29.223,0,0,0,7.837,3.287a.248.248,0,0,1-.066.488" transform="matrix(0.719, 0.695, -0.695, 0.719, 8.282, 63.259)" fill="#eaa183"/><path d="M.248,10.624A.251.251,0,0,1,.141,10.6a.248.248,0,0,1-.116-.332A29.912,29.912,0,0,0,2.072,4.636,28.176,28.176,0,0,0,2.912,0l.456.053a28.469,28.469,0,0,1-.815,4.7A30.4,30.4,0,0,1,.472,10.483a.248.248,0,0,1-.224.141" transform="translate(31.512 57.211) rotate(61)" fill="#eaa183"/></g><g transform="matrix(0.819, 0.574, -0.574, 0.819, 107.862, 50.119)"><path d="M26.818,62.892a47.454,47.454,0,0,0-4.287-33.376,1.433,1.433,0,0,1,.01-1.433A34,34,0,0,0,26.947,8.346C26.8,7.25,26.174,2.572,22.485.56A7.048,7.048,0,0,0,21.4.08a1.443,1.443,0,0,0-1.912,1.21,29.451,29.451,0,0,1-1.066,5.357,37.993,37.993,0,0,1-3.405,7.577c-1.638,3.074-3.084,5.4-5.211,8.808-3.365,5.391-3.7,5.578-4.418,7.385C4.6,32.388,5.105,33.68,3.547,38.8.312,49.417-.4,54.385.19,61.962a1.443,1.443,0,0,0,.121.474c.6,1.359,2.987,7.647,12.469,7.7,4.887.027,12.747-1.708,14.038-7.243" transform="matrix(0.53, 0.848, -0.848, 0.53, 59.478, 0)" fill="#ffc89f"/><path d="M.248,6.948a.248.248,0,0,1-.161-.437A18.7,18.7,0,0,0,2.536,3.98,18.668,18.668,0,0,0,4.9.145a.248.248,0,0,1,.451.208,19.15,19.15,0,0,1-2.43,3.938A19.155,19.155,0,0,1,.41,6.888a.246.246,0,0,1-.161.06" transform="matrix(0.53, 0.848, -0.848, 0.53, 44.342, 29.663)" fill="#eaa183"/><path d="M6.2,10.669a.249.249,0,0,1-.136-.04,13.527,13.527,0,0,1-4.634-5.14A13.329,13.329,0,0,1,0,.265.248.248,0,0,1,.232,0,.242.242,0,0,1,.5.233a12.835,12.835,0,0,0,1.38,5.031,13.03,13.03,0,0,0,4.463,4.95.248.248,0,0,1-.136.456" transform="translate(7.505 32.399) rotate(41)" fill="#eaa183"/><path d="M2.356,9.677a.248.248,0,0,1-.21-.115C.03,6.214-.47,3.5.421.184A.248.248,0,0,1,.9.313C.05,3.477.532,6.079,2.566,9.3a.248.248,0,0,1-.21.381" transform="translate(7.194 32.129) rotate(41)" fill="#eaa183"/></g></g></g><g transform="translate(443.933 657.967)"><g transform="translate(0 29.543)"><path d="M122.558,34.433a1.538,1.538,0,1,1-1.538,1.537,1.53,1.53,0,0,1,1.538-1.537m0,2.852a1.315,1.315,0,1,0-1.265-1.315,1.279,1.279,0,0,0,1.265,1.315m-.587-2.215h.68c.426,0,.626.169.626.513a.465.465,0,0,1-.474.492l.517.793h-.294l-.488-.773h-.293v.773h-.274Zm.274.8h.282c.242,0,.479-.011.479-.3,0-.249-.215-.275-.4-.275h-.359Z" transform="translate(-17.185 -34.433)" fill="#00704a"/><path d="M78.227,40.174c0,3.122-1.743,4.793-5,4.793-3.2,0-5-1.716-5-4.763V34.671H71.82v5.357c0,1.485.41,2.14,1.376,2.14s1.437-.595,1.437-2.293v-5.2h3.593Z" transform="translate(-9.688 -34.467)" fill="#00704a"/><path d="M18.692,37.232v7.532H15.06V37.232H12.021v-2.56H21.73v2.56Z" transform="translate(-1.707 -34.467)" fill="#00704a"/><path d="M29.485,36.972l-.9,3.457H30.4Zm2.338,7.792-.607-1.85H27.8l-.644,1.85H23.539l3.674-10.093h4.6l3.633,10.093Z" transform="translate(-3.343 -34.467)" fill="#00704a"/><path d="M91.9,43.943l-1.09-2.616a3.612,3.612,0,0,1-2.347.917,2.429,2.429,0,0,1-2.372-2.6A2.393,2.393,0,0,1,88.41,36.98a3.944,3.944,0,0,1,2.4.982l1.072-2.555a8.485,8.485,0,0,0-4.051-.974,5.253,5.253,0,1,0,.1,10.5,7.341,7.341,0,0,0,3.967-.99" transform="translate(-11.71 -34.433)" fill="#00704a"/><path d="M102.021,44.764l-2.275-3.68v3.68H96.22V34.671h3.526v3.7l2.131-3.7h3.942l-3.314,4.974,3.737,5.12Z" transform="translate(-13.664 -34.467)" fill="#00704a"/><path d="M4.243,44.933c2.289,0,4.661-.816,4.661-3.4,0-2.328-1.98-2.963-3.525-3.293-1.164-.251-1.721-.369-1.721-.836,0-.618.784-.668,1.2-.668a5.593,5.593,0,0,1,2.862.939l.942-2.3a10.87,10.87,0,0,0-4.119-.946c-2.372,0-4.231,1.145-4.231,3.453,0,1.89,1.435,2.619,3.018,3.012,1.094.269,1.8.35,1.8.895s-.54.7-1.059.7a4.7,4.7,0,0,1-2.933-1.085L0,43.634a7.907,7.907,0,0,0,4.243,1.3" transform="translate(0 -34.433)" fill="#00704a"/><path d="M113.429,44.933c2.286,0,4.661-.816,4.661-3.4,0-2.328-1.981-2.963-3.526-3.293-1.163-.251-1.721-.369-1.721-.836,0-.618.784-.668,1.205-.668a5.592,5.592,0,0,1,2.861.939l.941-2.3a10.869,10.869,0,0,0-4.117-.946c-2.375,0-4.233,1.145-4.233,3.453,0,1.89,1.436,2.619,3.018,3.012,1.1.269,1.8.35,1.8.895s-.538.7-1.057.7a4.7,4.7,0,0,1-2.933-1.085l-1.139,2.227a7.91,7.91,0,0,0,4.245,1.3" transform="translate(-15.505 -34.433)" fill="#00704a"/><path d="M47.332,40.992a3.031,3.031,0,0,0,1.9-2.859c0-2.382-1.628-3.462-3.939-3.462H39.846V44.764h3.5v-3h.883l1.818,3h3.776ZM45.7,38.147a.989.989,0,0,1-1.107,1.046H43.346v-2.1H44.6A.964.964,0,0,1,45.7,38.117Z" transform="translate(-5.658 -34.467)" fill="#00704a"/><path d="M61.644,39.608A2.139,2.139,0,0,0,63.6,37.354c0-1.717-1.288-2.683-3.554-2.683H54.293V44.764h5.526c2.668,0,4-.941,4-2.847a2.2,2.2,0,0,0-2.172-2.309M57.755,36.86h1.266c.673,0,1.106.287,1.106.878v.025c0,.565-.423.893-1.118.893H57.755Zm2.425,4.774c0,.6-.432.94-1.143.94H57.755V40.682H59.05c.686,0,1.13.3,1.13.927Z" transform="translate(-7.71 -34.467)" fill="#00704a"/></g><g transform="translate(15.066 45.581)"><path d="M20.106,58.45h-.633v2.714H17.559v-7.9h3.2c1.9,0,3.048.835,3.048,2.5a2.457,2.457,0,0,1-1.769,2.5L24,61.164H21.785Zm-.633-1.3h.911c.923,0,1.38-.411,1.38-1.179s-.478-1.1-1.38-1.1h-.911Z" transform="translate(-17.559 -53.145)" fill="#00704a"/><path d="M32.084,54.869v1.513h2.358v1.445H32.084v1.736h2.747v1.6h-4.66v-7.9h4.66v1.6Z" transform="translate(-19.35 -53.145)" fill="#00704a"/><path d="M52.3,53.267l-2.692,7.9H47.9l-1.7-5.172L44.48,61.164H42.757l-2.669-7.9h2.1l1.6,5.127,1.658-5.127h1.68l1.657,5.127,1.6-5.127Z" transform="translate(-20.758 -53.145)" fill="#00704a"/><path d="M62.051,59.429H59.459L58.9,61.165h-1.88l2.78-7.9h2.147l2.77,7.9H62.608Zm-.39-1.246-.9-2.791-.9,2.791Z" transform="translate(-23.163 -53.145)" fill="#00704a"/><path d="M73.076,58.45h-.634v2.714H70.529v-7.9h3.2c1.9,0,3.048.835,3.048,2.5a2.457,2.457,0,0,1-1.767,2.5l1.957,2.891H74.755Zm-.634-1.3h.912c.924,0,1.38-.411,1.38-1.179s-.479-1.1-1.38-1.1h-.912Z" transform="translate(-25.081 -53.145)" fill="#00704a"/><path d="M83.043,53.267h2.8c2.369,0,4,1.256,4,3.949s-1.624,3.948-4,3.948h-2.8Zm2.769,6.263c1.124,0,2-.646,2-2.313s-.89-2.314-2-2.314h-.856V59.53Z" transform="translate(-26.858 -53.145)" fill="#00704a"/><path d="M95.109,59.988l.8-1.235a3.142,3.142,0,0,0,2.1,1.023c.623,0,.99-.278.99-.734,0-1.223-3.582-.788-3.582-3.548a2.435,2.435,0,0,1,2.726-2.369,3.02,3.02,0,0,1,2.68,1.135l-.813,1.179a2.9,2.9,0,0,0-1.767-.79c-.535,0-.9.257-.9.679,0,1.123,3.682.823,3.682,3.447,0,1.713-1.223,2.536-2.8,2.536a3.682,3.682,0,0,1-3.114-1.323" transform="translate(-28.571 -53.125)" fill="#00704a"/></g><g transform="translate(14.685 0)"><g transform="translate(0 0.888)"><path d="M37.169,21.965H29.712V20.731H34.99a.44.44,0,0,0,.438-.438V18.759a.439.439,0,0,0-.438-.438H29.712V17.168h6.281a.44.44,0,0,0,.438-.438V15.2a.44.44,0,0,0-.438-.438H29.712v-.7a.44.44,0,0,0-.438-.438h-2.24a.439.439,0,0,0-.437.438v.7H22.355c.065-.3.107-.544.132-.719a.265.265,0,0,0,.009-.053v-.005a.233.233,0,0,0-.233-.232H19.942a.232.232,0,0,0-.229.194v0A7.763,7.763,0,0,1,17.2,18.458l-.008.005a.234.234,0,0,0-.079.174.23.23,0,0,0,.065.16.088.088,0,0,0,.015.015l1.386,1.32a.23.23,0,0,0,.262.04.25.25,0,0,0,.036-.021,7.244,7.244,0,0,0,2.631-2.982H26.6v1.153h-4.67a.439.439,0,0,0-.438.438v1.533a.44.44,0,0,0,.438.438H26.6v1.235H18.824a.439.439,0,0,0-.438.438v1.784a.44.44,0,0,0,.438.438H37.169a.44.44,0,0,0,.438-.438V22.4A.439.439,0,0,0,37.169,21.965Z" transform="translate(-17.115 -2.822)" fill="#00704a"/><path d="M20.241,11.229v.006H35.987a.441.441,0,0,0,.438-.439V1.473a.441.441,0,0,0-.438-.438H20.241v.006a.436.436,0,0,0-.41.432V10.8A.436.436,0,0,0,20.241,11.229Zm2.706-7.38H33.308V5.092H22.947Zm10.361,3.5V8.526H22.947V7.345Z" transform="translate(-17.501 -1.035)" fill="#00704a"/></g><g transform="translate(25.433)"><path d="M55.475,14.313a.453.453,0,0,0,.053-.626l-.253-.307h12.73a.442.442,0,0,0,.441-.44V11.9a.442.442,0,0,0-.441-.44H55.279a.442.442,0,0,0-.441.44v.945l-1.974-2.4a11.278,11.278,0,0,0,1.349-4.195V4.294a.44.44,0,0,0-.439-.44H52.389l.849-.9a.468.468,0,0,0-.006-.637L51.648.686a.418.418,0,0,0-.609,0l-1.029,1.1a.465.465,0,0,0,.005.636l1.392,1.433H48.674a.441.441,0,0,0-.44.44V6.109a.442.442,0,0,0,.44.441h2.765c-.107.9-.739,3.8-4.46,6.618a.424.424,0,0,0-.222.372.43.43,0,0,0,.053.206c.009.017.021.033.033.05l1,1.359a.676.676,0,0,0,.046.071.426.426,0,0,0,.493.124.449.449,0,0,0,.1-.063,14.654,14.654,0,0,0,1.886-1.544v8.844a.44.44,0,0,0,.439.44h1.706a.441.441,0,0,0,.44-.44V14.205l.816.992a.432.432,0,0,0,.614.053Z" transform="translate(-46.757 -0.079)" fill="#00704a"/><path d="M69.957,22.836h-2.7l.957-1.237h.357a.442.442,0,0,0,.441-.44V16.907a.442.442,0,0,0-.441-.44H57.508a.442.442,0,0,0-.441.44v4.251a.442.442,0,0,0,.441.44h.4l.957,1.237H55.759a.441.441,0,0,0-.44.439V24.59a.442.442,0,0,0,.44.44h14.2a.443.443,0,0,0,.441-.44V23.275A.442.442,0,0,0,69.957,22.836ZM59.52,19.765V18.3h7.043v1.465Zm1.3,1.834h4.484l-.938,1.211.028.026H61.732l.028-.026Z" transform="translate(-47.973 -2.338)" fill="#00704a"/><path d="M56.179,10.208a.441.441,0,0,0,.439.44H69.343a.442.442,0,0,0,.441-.44V2.293h-.01V2.165a.441.441,0,0,0-.44-.44H66.059V.44A.44.44,0,0,0,65.62,0H64.334a.44.44,0,0,0-.44.44V1.725H62.068V.44a.441.441,0,0,0-.44-.44H60.342a.441.441,0,0,0-.44.44V1.725H56.617a.442.442,0,0,0-.441.44V9.723h0ZM67.271,8.522H66.059V7.208h1.211Zm-3.377,0H62.068V7.208h1.826Zm-3.992,0H58.688V7.208H59.9Zm7.369-4.671V5.079H66.059V3.851Zm-3.377,0V5.079H62.068V3.851ZM59.9,5.079H58.688V3.851H59.9Z" transform="translate(-48.095 0)" fill="#00704a"/></g><g transform="translate(51.205 0.963)"><path d="M99.448,22.112H94.57V20.22H97.9a.438.438,0,0,0,.438-.437V18.256a.438.438,0,0,0-.438-.438H94.57v-1.7a31.022,31.022,0,0,0,3.853-.62l.076-.019a.467.467,0,0,0,.317-.442c0-.015,0-.029,0-.043L98.8,14.9l-.311-1.582c0-.015,0-.029-.007-.044a.467.467,0,0,0-.449-.353H98c-.017,0-.034,0-.052.006a.379.379,0,0,0-.054.012,52.3,52.3,0,0,1-9.96,1.138H87.9a.466.466,0,0,0-.439.452v.062l.057,1.448v.009a.406.406,0,0,0,0,.045.466.466,0,0,0,.438.42h.026a.373.373,0,0,0,.045,0c.65-.013,1.915-.048,3.41-.137v1.448H88.276a.441.441,0,0,0-.44.438v1.527a.44.44,0,0,0,.44.437h3.161v1.892H86.558a.438.438,0,0,0-.438.438V24.1a.438.438,0,0,0,.438.438H99.448a.439.439,0,0,0,.438-.438V22.55A.439.439,0,0,0,99.448,22.112Z" transform="translate(-78.119 -2.797)" fill="#00704a"/><path d="M86.044,14.2a24.736,24.736,0,0,0-3-4.286h2.14a.44.44,0,0,0,.438-.438V7.851a.439.439,0,0,0-.438-.438H83V4.936a14.887,14.887,0,0,0,2.375-1.22h0a.466.466,0,0,0,.2-.381.459.459,0,0,0-.037-.182l-.752-1.729a.34.34,0,0,0-.018-.04.462.462,0,0,0-.412-.261h-.033a.465.465,0,0,0-.2.061l-.007,0A27.364,27.364,0,0,1,77.8,3.809a.256.256,0,0,0-.034.009.462.462,0,0,0-.326.432l0,.062a.584.584,0,0,0,.015.079.224.224,0,0,0,.009.026l.5,1.578a.469.469,0,0,0,.424.344l.071,0,.042-.005.027-.006c.413-.091,1.092-.254,1.9-.491V7.414H78.176a.439.439,0,0,0-.437.438V9.478a.44.44,0,0,0,.437.438h2.245v0A36.886,36.886,0,0,1,76.9,15.673a.251.251,0,0,0-.022.028.467.467,0,0,0-.085.256l0,.062a.47.47,0,0,0,.134.28.157.157,0,0,0,.021.02l1.309,1.24.021.019a.465.465,0,0,0,.283.116h.07a.459.459,0,0,0,.326-.183.378.378,0,0,0,.031-.045c.323-.483.852-1.29,1.427-2.231v7.525a.439.439,0,0,0,.438.438h1.7A.439.439,0,0,0,83,22.759v-8.71c.3.492.6,1.021.913,1.637l.032.062a.462.462,0,0,0,.372.225l.072,0a.455.455,0,0,0,.243-.1l0,0,1.272-1.01A.548.548,0,0,0,86.044,14.2Z" transform="translate(-76.795 -1.122)" fill="#00704a"/><path d="M87.916,10.147a.44.44,0,0,0,.438.438H98.627a.439.439,0,0,0,.438-.438V2.174h0V2.052a.441.441,0,0,0-.439-.438H88.352a.439.439,0,0,0-.438.438V9.567h0ZM96.3,8.211H90.678V3.988H96.3Z" transform="translate(-78.374 -1.192)" fill="#00704a"/></g></g></g><g transform="translate(352.623 618.01)"><path d="M86.946,44.9l-8.6,103.317h-58.9L7.5,44.9Z" transform="translate(-5.43 -32.511)" fill="#fff"/><path d="M109.7,399.346c0,2.552-4.819,4.814-12.226,6.2-1.2.226-2.466.428-3.79.6a103.218,103.218,0,0,1-13.434.839c-16.267,0-29.453-3.423-29.453-7.647s13.186-7.65,29.453-7.65a99.328,99.328,0,0,1,15.285,1.112c1.272.2,2.48.425,3.614.673,6.452,1.4,10.552,3.509,10.552,5.865" transform="translate(-36.786 -283.643)" fill="#fff"/><path d="M123.845,194.2a18.162,18.162,0,1,1-18.161-18.161A18.161,18.161,0,0,1,123.845,194.2" transform="translate(-63.378 -127.478)" fill="#006241"/><path d="M93.014,15.273c0,5.335-15.6,9.724-35.6,10.259q-2.036.054-4.127.055c-12.118,0-22.968-1.41-30.253-3.63-5.906-1.8-9.47-4.132-9.47-6.684,0-5.7,17.785-10.317,39.724-10.317,11.829,0,22.452,1.343,29.726,3.476,6.221,1.821,10,4.215,10,6.841" transform="translate(-9.824 -3.589)" fill="#c9c9c9"/><path d="M34.292-7.5C55.06-7.5,76.085-3.246,76.085,4.885S55.06,17.269,34.292,17.269-7.5,13.015-7.5,4.885,13.524-7.5,34.292-7.5Zm0,20.631c24.364,0,37.654-5.448,37.654-8.247S58.656-3.362,34.292-3.362-3.362,2.086-3.362,4.885,9.929,13.131,34.292,13.131Z" transform="translate(7.5 7.5)" fill="#fff"/></g><g transform="translate(317.241 546.693)"><path d="M18.276,0l-6.23,10.641L0,8l8.2,9.213L1.965,27.859,13.26,22.912l8.195,9.213-1.214-12.27,11.3-4.947L19.49,12.271Z" transform="translate(69.646 13.919) rotate(25)" fill="#d2a04a"/><path d="M9.742,0,6.421,5.673,0,4.267,4.369,9.178,1.048,14.851l6.021-2.637,4.368,4.911-.647-6.541,6.021-2.637L10.39,6.541Z" transform="matrix(0.616, 0.788, -0.788, 0.616, 57.642, 42.159)" fill="#d2a04a"/><path d="M9.742,0,6.421,5.673,0,4.267,4.369,9.178,1.048,14.851l6.021-2.637,4.368,4.911-.647-6.541,6.021-2.637L10.39,6.541Z" transform="translate(46.166 4.869) rotate(87)" fill="#d2a04a"/><path d="M7.159,0,4.718,4.168,0,3.135,3.21,6.744.77,10.913,5.194,8.975,8.4,12.584,7.929,7.777,12.353,5.84,7.635,4.807Z" transform="matrix(0.454, 0.891, -0.891, 0.454, 90.898, 54.054)" fill="#d2a04a"/><path d="M5.41,0,3.566,3.15,0,2.369,2.426,5.1.582,8.246,3.925,6.782,6.351,9.509,5.991,5.877,9.335,4.413,5.769,3.632Z" transform="translate(81.744 65.949) rotate(73)" fill="#d2a04a"/><path d="M5.41,0,3.566,3.15,0,2.369,2.426,5.1.582,8.246,3.925,6.782,6.351,9.509,5.991,5.877,9.335,4.413,5.769,3.632Z" transform="translate(9.671 10.142) rotate(91)" fill="#d2a04a"/><path d="M5.41,9.509,3.566,6.36,0,7.14,2.426,4.413.582,1.263,3.925,2.727,6.351,0,5.991,3.632,9.335,5.1l-3.566.781Z" transform="translate(66.258 0.663) rotate(94)" fill="#d2a04a"/><path d="M11.938,24.875a1,1,0,0,1-1-1V17.906a1,1,0,0,1,2,0v5.969A1,1,0,0,1,11.938,24.875ZM3.5,21.379a1,1,0,0,1-.707-1.707L7.557,14.9a1,1,0,0,1,1.414,1.414L4.2,21.086A1,1,0,0,1,3.5,21.379Zm16.882,0a1,1,0,0,1-.707-.293L14.9,16.318A1,1,0,1,1,16.318,14.9l4.768,4.768a1,1,0,0,1-.707,1.707Zm3.5-8.441H16.988a1,1,0,0,1,0-2h6.887a1,1,0,1,1,0,2Zm-16.988,0H0a1,1,0,1,1,0-2H6.887a1,1,0,0,1,0,2ZM8.264,9.264a1,1,0,0,1-.707-.293L2.789,4.2A1,1,0,0,1,4.2,2.789L8.972,7.557a1,1,0,0,1-.707,1.707Zm7.346,0A1,1,0,0,1,14.9,7.557l4.768-4.768A1,1,0,1,1,21.086,4.2L16.318,8.972A1,1,0,0,1,15.61,9.264Zm-3.673-2.3a1,1,0,0,1-1-1V0a1,1,0,0,1,1-1,1,1,0,0,1,1,1V5.969A1,1,0,0,1,11.938,6.969Z" transform="translate(13.392 103.672) rotate(21)" fill="#0e6241"/><path d="M11.938,24.875a1,1,0,0,1-1-1V17.906a1,1,0,0,1,2,0v5.969A1,1,0,0,1,11.938,24.875ZM3.5,21.379a1,1,0,0,1-.707-1.707L7.557,14.9a1,1,0,0,1,1.414,1.414L4.2,21.086A1,1,0,0,1,3.5,21.379Zm16.882,0a1,1,0,0,1-.707-.293L14.9,16.318A1,1,0,1,1,16.318,14.9l4.768,4.768a1,1,0,0,1-.707,1.707Zm3.5-8.441H16.988a1,1,0,0,1,0-2h6.887a1,1,0,1,1,0,2Zm-16.988,0H0a1,1,0,1,1,0-2H6.887a1,1,0,0,1,0,2ZM8.264,9.264a1,1,0,0,1-.707-.293L2.789,4.2A1,1,0,0,1,4.2,2.789L8.972,7.557a1,1,0,0,1-.707,1.707Zm7.346,0A1,1,0,0,1,14.9,7.557l4.768-4.768A1,1,0,1,1,21.086,4.2L16.318,8.972A1,1,0,0,1,15.61,9.264Zm-3.673-2.3a1,1,0,0,1-1-1V0a1,1,0,0,1,1-1,1,1,0,0,1,1,1V5.969A1,1,0,0,1,11.938,6.969Z" transform="translate(128.403 38.631) rotate(21)" fill="#0e6241"/></g><g transform="translate(297.495 766.743)"><path d="M13.5,1A12.5,12.5,0,0,0,4.661,22.339,12.418,12.418,0,0,0,13.5,26h59A12.5,12.5,0,0,0,81.339,4.661,12.418,12.418,0,0,0,72.5,1h-59m0-1h59a13.5,13.5,0,0,1,0,27h-59a13.5,13.5,0,0,1,0-27Z" transform="translate(1 4)" fill="#fff"/><text transform="translate(44 23)" fill="#fff" font-size="14" font-family="NotoSansCJKtc-Bold, Noto Sans CJK TC" font-weight="700" opacity="0.004"><tspan x="-28" y="0">了解更多</tspan></text><path d="M-16.59-10.976l-.364.1H-26.67V-9.24h8.078a17.279,17.279,0,0,1-3.22,2.3v6.2c0,.238-.112.322-.42.322s-1.456.014-2.45-.028a5.946,5.946,0,0,1,.672,1.68,9.42,9.42,0,0,0,3.038-.28c.686-.252.91-.7.91-1.652V-6.1A23.261,23.261,0,0,0-15.246-10Zm9.38,3.85a3.968,3.968,0,0,1,.672.952c.1-.042.2-.1.294-.14a7.6,7.6,0,0,1-.966,2.73ZM-9.366-3.668V-4.83h.8v1.162Zm-1.89-1.162h.8v1.162h-.812c.014-.322.014-.63.014-.924ZM-9.786-9.3c-.126.35-.252.714-.392,1.022h-1.2c.168-.322.322-.672.476-1.022Zm.42,2.24h.8v1.05h-.8Zm-1.89,0h.8v1.05h-.8ZM-.434-2.576h-2.38v-1.26h2.1v-1.4h-2.1V-6.5H-4.4v1.26h-.686c.084-.294.14-.6.2-.9l-1.246-.252a4.263,4.263,0,0,0,2.2-3.4H-2.31a4.387,4.387,0,0,1-.252,1.792.415.415,0,0,1-.378.154c-.2,0-.574-.014-1.008-.056A3.319,3.319,0,0,1-3.57-6.552a10.339,10.339,0,0,0,1.414-.042A1.246,1.246,0,0,0-1.3-7.056c.308-.364.42-1.33.49-3.556.014-.182.028-.532.028-.532H-7v1.358h1.568A2.932,2.932,0,0,1-7.21-7.42v-.854H-8.778a15.713,15.713,0,0,0,.77-1.764l-.952-.588-.21.07h-1.274c.112-.322.21-.658.294-.994l-1.47-.308a9.8,9.8,0,0,1-2.072,4.3,9.019,9.019,0,0,1,1.092.9v2.072c0,1.568-.07,3.654-1.008,5.1a5.758,5.758,0,0,1,1.148.742,8.724,8.724,0,0,0,1.106-3.682h2.786V-.42c0,.182-.07.238-.238.238s-.714,0-1.274-.028A4.443,4.443,0,0,1-9.6,1.2,3.936,3.936,0,0,0-7.742.924c.42-.238.532-.658.532-1.316V-3.346a7.825,7.825,0,0,1,1.092.588,5.971,5.971,0,0,0,.56-1.078H-4.4v1.26h-2.59v1.428H-4.4v2.31h1.582v-2.31h2.38Zm6.4-.588a3.056,3.056,0,0,1-.812,1.218A5.313,5.313,0,0,1,3.794-3.164ZM3.654-5.432H6.23v.448c0,.154,0,.308-.014.462H3.654Zm0-2.142H6.23v.9H3.654Zm6.958,0v.9H7.98v-.9Zm0,3.052H7.966c.014-.154.014-.308.014-.448v-.462h2.632Zm1.652,1.358V-8.918H7.98v-.826h5.152v-1.484H.868v1.484H6.23v.826H2.086v5.754H3.57L2.3-2.646A6.75,6.75,0,0,0,3.738-1.078,13.59,13.59,0,0,1,.574-.252,7.733,7.733,0,0,1,1.582,1.232,12.634,12.634,0,0,0,5.376-.084c2,.882,4.578,1.092,7.616,1.162a4.035,4.035,0,0,1,.714-1.652,22.894,22.894,0,0,1-6.958-.644A4.589,4.589,0,0,0,7.77-3.164Zm10.584-6.09a9.336,9.336,0,0,1-2.31,1.638,11.218,11.218,0,0,0-1.582-1.358c.14-.1.28-.182.406-.28Zm1.554-1.54-.294.07H21.154q.4-.378.756-.756l-1.792-.42A12.024,12.024,0,0,1,15.26-8.778a5.1,5.1,0,0,1,1.134,1.19c.448-.2.868-.406,1.274-.63a17.662,17.662,0,0,1,1.372,1.26,19.236,19.236,0,0,1-4.13,1.064,6.147,6.147,0,0,1,.77,1.47c4.032-.756,8.008-2.492,9.814-5.712Zm.392,6.706a7.481,7.481,0,0,1-2.352,1.932A13.734,13.734,0,0,0,20.8-3.542c.266-.182.546-.364.812-.546Zm1.4-1.554-.308.084H23.38c.308-.308.574-.616.854-.938l-1.806-.42a11.822,11.822,0,0,1-5.88,3.626A5.245,5.245,0,0,1,17.57-2a15.222,15.222,0,0,0,1.806-.77c.5.42,1.064.9,1.456,1.3A23.128,23.128,0,0,1,14.77-.364a7.006,7.006,0,0,1,.672,1.61c5.334-.5,9.926-1.974,11.9-6.23Z" transform="translate(44 23)" fill="#fff"/></g><g transform="translate(407.5 766.743)"><path d="M13.5,1A12.5,12.5,0,0,0,4.661,22.339,12.418,12.418,0,0,0,13.5,26h65A12.5,12.5,0,0,0,87.339,4.661,12.418,12.418,0,0,0,78.5,1h-65m0-1h65a13.5,13.5,0,0,1,0,27h-65a13.5,13.5,0,0,1,0-27Z" transform="translate(-2 4)" fill="#fff"/><text transform="translate(44 23)" fill="#fff" font-size="14" font-family="NotoSansCJKtc-Bold, Noto Sans CJK TC" font-weight="700" opacity="0"><tspan x="-30.716" y="0">加入/登入</tspan></text><path d="M-26.656-9.38c.014-.8.028-1.624.028-2.436h-1.68c0,.812,0,1.638-.014,2.436H-30v1.624h1.638c-.112,3.08-.532,5.88-2.016,7.784a4.467,4.467,0,0,1,1.316,1.19c1.666-2.226,2.184-5.446,2.352-8.974h1.372c-.168,4.634-.378,6.37-.686,6.776a.528.528,0,0,1-.49.266c-.252,0-.7-.014-1.19-.056A4.535,4.535,0,0,1-27.23.952a7.834,7.834,0,0,0,1.6-.07A1.476,1.476,0,0,0-24.556.14c.49-.658.7-2.842.91-8.764.014-.21.028-.77.028-.77Zm5.334,7.728V-8.666h1.876v7.014Zm-1.666-8.61V.924h1.666V-.042h1.876V.826h1.736V-10.262Zm9.506-.812V-9.38h3.192c.042.476.1.98.2,1.512l-.854-.154c-.77,3.682-2.436,6.384-5.348,7.854A13.3,13.3,0,0,1-14.77,1.19,12.115,12.115,0,0,0-9.6-5.726a11.829,11.829,0,0,0,5.152,6.9A8.963,8.963,0,0,1-3.108-.28c-5.152-3.038-5.53-8.148-5.53-10.794ZM-2.52,2.548h1.372L2.324-11.27H.952ZM12.054-3.4H7.182V-4.634h4.872ZM7.966-.476l.7-.238a5.764,5.764,0,0,0-.658-1.372h3.4a12.469,12.469,0,0,1-.728,1.61ZM7.35-6.748h4.858v-.49a11.669,11.669,0,0,0,1.47,1.288H5.81A10.6,10.6,0,0,0,7.35-7.28Zm6.5.91a9.565,9.565,0,0,0,1.526.868,6.379,6.379,0,0,1,1.134-1.4,8.982,8.982,0,0,1-2.38-1.386c.6-.434,1.3-.966,1.89-1.484L14.8-10.108a12.123,12.123,0,0,1-1.624,1.484c-.224-.238-.434-.462-.63-.714.6-.434,1.33-.98,1.946-1.5l-1.26-.9A10.273,10.273,0,0,1,11.8-10.388a10.454,10.454,0,0,1-.714-1.428L9.6-11.368a13.581,13.581,0,0,0,1.848,3.234H8.092A9.968,9.968,0,0,0,9.6-10.864L8.5-11.424l-.28.07H4.074v1.344H7.42A8.5,8.5,0,0,1,6.356-8.568,8.338,8.338,0,0,0,4.788-9.7l-.9.924A9.625,9.625,0,0,1,5.376-7.6,9.03,9.03,0,0,1,3-6.1,7.025,7.025,0,0,1,4.018-4.872a11.128,11.128,0,0,0,1.47-.854v3.64H7.532l-1.106.35A6.744,6.744,0,0,1,7-.476H3.57V.938H15.9V-.476H12.348c.21-.392.448-.84.672-1.316l-1.386-.294h2.212Zm6.1-5.236V-9.38h3.192c.042.476.1.98.2,1.512l-.854-.154c-.77,3.682-2.436,6.384-5.348,7.854A13.3,13.3,0,0,1,18.662,1.19a12.115,12.115,0,0,0,5.166-6.916,11.829,11.829,0,0,0,5.152,6.9A8.963,8.963,0,0,1,30.324-.28c-5.152-3.038-5.53-8.148-5.53-10.794Z" transform="translate(44 23)" fill="#fff"/></g></g><g transform="translate(377.547 668.221)"><g transform="translate(68.899 18.112)"><path d="M69.744,560.157a34.872,34.872,0,1,0-34.872,34.872,34.872,34.872,0,0,0,34.872-34.872" transform="translate(0 -525.285)" fill="#0e382c"/><g transform="translate(16.891 10.591)"><path d="M4.5,0,7.367,34.028c3.508.553,9.138,1.944,12.905,5.946,0,0,4.512-4.771,14.782-4.8L38,.161,38.015,0ZM36.1,11.45H6.422L5.5.892H37.023Z" transform="translate(-3.165)" fill="#fff"/><path d="M33.72,62.412a8.072,8.072,0,1,1,8.072,8.072,8.072,8.072,0,0,1-8.072-8.072" transform="translate(-23.698 -38.19)" fill="#005d2f"/><path d="M0,117s.3,10.359,7.8,15.7a22.144,22.144,0,0,0,13.6,3.918s-.3-8.619-6.241-14.563C10.251,117.146,0,117,0,117" transform="translate(0 -82.227)" fill="#005d2f"/><path d="M75.887,144.232a12.94,12.94,0,0,0-5.742,3.439c.284.8.538,1.633.754,2.493a16.141,16.141,0,0,1,5.371-3.4,9.659,9.659,0,0,1,5.854-.843,20.123,20.123,0,0,0,1.26-2.218c-1.1-.352-3.633-.814-7.5.53" transform="translate(-49.298 -100.732)" fill="#679f7d"/><path d="M78.834,155a14.269,14.269,0,0,0-5.455,3.6c.185.849.336,1.719.444,2.6a25.822,25.822,0,0,0,7.828-4.537,15.175,15.175,0,0,0,2.278-2.52,9.349,9.349,0,0,0-5.1.854" transform="translate(-51.57 -108.278)" fill="#679f7d"/><path d="M67.065,124.1a14.9,14.9,0,0,0-7.261,3.748,16.1,16.1,0,0,1,1.365,2.024,16.926,16.926,0,0,1,7.39-3.8,15.831,15.831,0,0,1,8.909.126,18.36,18.36,0,0,0,.524-2.112s-4.136-1.7-10.927.01" transform="translate(-42.03 -86.68)" fill="#679f7d"/><path d="M72.85,133.737a16.29,16.29,0,0,0-7.194,3.753,23.147,23.147,0,0,1,1.036,2.275,14.4,14.4,0,0,1,5.794-3.349c4.17-1.452,6.877-.92,8.064-.513.325-.731.588-1.424.8-2.052a15.329,15.329,0,0,0-8.5-.115" transform="translate(-46.143 -93.619)" fill="#679f7d"/></g></g><text transform="translate(103.271 107.852)" fill="#0e6241" font-size="14" font-family="SourceHanSansTC-Medium, Source Han Sans TC" opacity="0" font-weight="500"><tspan x="-28.5" y="0">循環杯</tspan><tspan y="0" xml:space="preserve" font-size="12" font-family="FontAwesome6Pro-Regular, 'Font Awesome \36  Pro'" font-weight="400"> </tspan></text><path d="M-25.658-11.746A10.149,10.149,0,0,1-28-9.03a6.411,6.411,0,0,1,.672.98,13.586,13.586,0,0,0,2.842-3.262Zm.336,3.024a12.216,12.216,0,0,1-2.786,3.374,9.788,9.788,0,0,1,.644,1.26,13.959,13.959,0,0,0,1.092-1.12V1.106H-25.2v-7.8A14.032,14.032,0,0,0-24.2-8.274Zm8.19,4.564h-3.4v-.924h3.4Zm-3.4,3.64V-1.47h3.4v.952Zm3.4-1.848h-3.4v-.9h3.4Zm1.946-5.068v-1.05H-18.21V-9.8h-1.26v1.316h-2.716v-1.26a48.525,48.525,0,0,0,6.482-.91l-.994-.924a52.954,52.954,0,0,1-6.636.952V-6.1c0,2.058-.14,4.732-1.288,6.636a4.3,4.3,0,0,1,.966.574c1.288-2.058,1.47-4.886,1.47-7.21v-1.33h2.716V-6.1h-2.282V1.078h1.218v-.6h3.4v.6h1.274V-6.1H-18.21v-1.33ZM-2.852-9.156H-4.028v-1.19h1.176Zm-2.072,0H-6.072v-1.19h1.148Zm-2.044,0H-8.074v-1.19h1.106Zm5.236-2.114h-7.42v3.024h7.42Zm.448,3.626H-9.7v1.036h8.414ZM-7.668-5.026h4.34v1.078h-4.34ZM-2.236-2.9a13.735,13.735,0,0,1-1.6,1.05A5.8,5.8,0,0,1-4.56-3.01H-2.1V-5.964H-8.83V-3.01h1.89A11.681,11.681,0,0,1-10.1-1.624l-.14-1.008c-.392.112-.8.238-1.19.35v-3.4h1.12V-6.818h-1.12V-9.7h1.274v-1.162H-13.9V-9.7h1.33v2.884h-1.218v1.134h1.218v3.71c-.56.154-1.064.294-1.512.392l.252,1.19c1.064-.294,2.352-.672,3.626-1.064a4.524,4.524,0,0,1,.616.8A9.829,9.829,0,0,0-8.228-1.2v.462a.924.924,0,0,1-.5.9,3.626,3.626,0,0,1,.434.91v.014A15.516,15.516,0,0,1-5.036.154,7.332,7.332,0,0,1-5.022-.8l-2.156.462V-1.764A9.211,9.211,0,0,0-5.638-2.87,6.2,6.2,0,0,0-1.746.966a3.791,3.791,0,0,1,.77-.994A5.558,5.558,0,0,1-3.188-1.176c.588-.266,1.246-.616,1.82-.938Zm7.5-2.576C5.016-5.768,3.994-6.832,3.546-7.21v-.378H5.31V-8.82H3.546v-2.926H2.3V-8.82H.256v1.232H2.132a14.661,14.661,0,0,1-2.212,5A6.851,6.851,0,0,1,.564-1.4,13.681,13.681,0,0,0,2.3-5.026V1.092H3.546V-5.866c.392.5.784,1.064.994,1.4ZM9.552-6.916v-.91a14.5,14.5,0,0,0,.756-1.554H12.87v-1.246H5.086V-9.38h3.78A10.812,10.812,0,0,1,4.414-4.312a7.959,7.959,0,0,1,.9,1.106A12.611,12.611,0,0,0,8.25-5.88V1.106h1.3V-6.5A18.008,18.008,0,0,1,12.2-3.542l.938-.9A18.633,18.633,0,0,0,10.182-7.49ZM23.468-4.889,19.343-9.2a.562.562,0,0,0-.794-.018.56.56,0,0,0-.174.406.562.562,0,0,0,.156.389L22.284-4.5,18.532-.577a.563.563,0,0,0,.018.8.563.563,0,0,0,.8-.018L23.47-4.111A.564.564,0,0,0,23.468-4.889Zm4.5,0L23.843-9.2a.562.562,0,0,0-.795-.018.564.564,0,0,0-.173.406.562.562,0,0,0,.156.389L26.784-4.5,23.032-.577a.563.563,0,0,0,.018.8.563.563,0,0,0,.8-.018L27.97-4.111A.564.564,0,0,0,27.968-4.889Z" transform="translate(103.271 107.852)" fill="#0e6241"/></g><g transform="translate(285.252 671.692)"><g transform="translate(0.673 -0.649)"><path d="M69.744,560.157a34.872,34.872,0,1,0-34.872,34.872,34.872,34.872,0,0,0,34.872-34.872" transform="translate(0 -509.856)" fill="#0e382c"/><g transform="translate(0.078)" clip-path="url(#d)"><path d="M859.116,760.5c1.468-.685,2.166,1.339,2.211,2.531.11,2.957-1.537,4.917-4.1,6.331-2.53,1.4-4.151.484-3.551-2.333.48-2.252,3.342-5.549,5.44-6.529" transform="translate(-807.125 -732.125)" fill="#dfa479"/><path d="M289.017,795a.428.428,0,0,0,.056.061c.033.03.063.061.1.091-.049-.051-.1-.1-.152-.152" transform="translate(-273.349 -764.879)" fill="#3b2c3e"/><path d="M227.3,856.4s-2.8-1.716-3.1.46.428,5.506.411,8.679c-.026,4.677-3.192,18.778-1.876,22.653a47.272,47.272,0,0,0,6.607,11.992c3.1,4.366,1.225,35.32,1.225,35.32l23.115-.027-3.619-30.109c3.02-6.246,6.44-7.643,6.351-14.654,0-.362-16.816-11.416-16.816-11.416l-5.024-6.479s-3.243-5.988-3.44-7.246S227.3,856.4,227.3,856.4" transform="translate(-210.379 -822.319)" fill="#dfa479"/><path d="M413.13,1336.78a.709.709,0,0,1-.422-.129.7.7,0,0,1-.3-.678c.063-.443.448-.6.855-.766.353-.144.865-.328,1.52-.546l4.949-1.649-4.344,2.887c-.119.079-.244.155-.371.224a7.13,7.13,0,0,1-1.135.489A2.55,2.55,0,0,1,413.13,1336.78Zm-16.973-6.824a.7.7,0,0,1-.182-1.366c3.314-.9,5.567-2.6,6.7-5.033,2.288-4.936-.687-11.5-.717-11.569a.7.7,0,0,1,1.261-.584,21.514,21.514,0,0,1,1.336,4.283,13.7,13.7,0,0,1-.619,8.455c-1.31,2.825-3.865,4.773-7.593,5.789A.694.694,0,0,1,396.158,1329.957Z" transform="translate(-374.652 -1253.422)" fill="#213a33"/><path d="M256.555,865.7a.7.7,0,0,1-.161-1.371,1.125,1.125,0,0,0,.756-.5c.528-.883-.138-2.829-.683-3.849a.7.7,0,1,1,1.226-.654c.182.341,1.745,3.384.65,5.216a2.474,2.474,0,0,1-1.625,1.138A.7.7,0,0,1,256.555,865.7Z" transform="translate(-242.656 -826.009)" fill="#213a33"/><path d="M368.976,477.9l-22.837.04a4.566,4.566,0,0,1-4.574-4.559l-.074-52.193a4.566,4.566,0,0,1,4.558-4.572l22.837-.04a4.566,4.566,0,0,1,4.574,4.559l.074,52.193a4.565,4.565,0,0,1-4.558,4.572" transform="translate(-322.964 -407.068)" fill="#fff"/><path d="M393.6,500.48l-22.325.039a3.372,3.372,0,0,1-3.378-3.367l-.074-51.82a3.371,3.371,0,0,1,3.366-3.377l22.325-.039a3.372,3.372,0,0,1,3.378,3.368l.075,51.819a3.372,3.372,0,0,1-3.366,3.377" transform="translate(-347.864 -431.03)" fill="#d8a43d"/><path d="M298.323,867.805a14.724,14.724,0,0,1,2.375,4.632c1.672,5.273-.638,21.043-1.844,21.377l-1.325-7.98Z" transform="translate(-281.397 -833.715)" fill="#dfa479"/><path d="M851.172,1327.8a1.391,1.391,0,0,0,.391,1.537c1.6,1.314,5.652-.888,6.088-2.68a2.786,2.786,0,0,0,.053-1.361c-.552-2.1-2.183-2.907-3.153-2.017-.7.644-2.944,2.83-3.378,4.521" transform="translate(-804.807 -1264.032)" fill="#dfa479"/><path d="M835.043,1168.168c1.087-.507,2.668.907,2.828,2.005.472,3.23-1.89,5.3-4.719,6.857-2.53,1.4-4.151.485-3.551-2.332.48-2.252,3.342-5.549,5.442-6.53" transform="translate(-784.362 -1117.613)" fill="#dfa479"/><path d="M849.116,998.715a1.911,1.911,0,0,1,2.52.686c.908,1.447.754,2.994.323,4.671a8.161,8.161,0,0,1-2.476,3.7c-2.1,1.98-3.9,1.5-4.018-1.379-.093-2.3,1.861-6.205,3.652-7.674" transform="translate(-799.476 -957.25)" fill="#dfa479"/><path d="M484.564,1185.611a.392.392,0,0,0-.377-.444c-.192,0-.373.144-.372.445s.181.444.373.444a.392.392,0,0,0,.376-.444m-1.133,0a.758.758,0,1,1,.757.782.75.75,0,0,1-.757-.782" transform="translate(-457.171 -1133.465)" fill="#0e382c"/><path d="M519.447,1186.181h.173c.175,0,.261-.078.261-.223s-.091-.208-.261-.208h-.173Zm.12.246h-.12v.514h-.362l0-1.495h.606c.36,0,.577.157.577.473a.464.464,0,0,1-.334.474l.371.547h-.419Z" transform="translate(-490.881 -1134.05)" fill="#0e382c"/><path d="M549.857,1186.159c0-.314-.169-.438-.38-.437h-.162v.876h.162c.213,0,.379-.122.378-.438m-.373-.747a.748.748,0,1,1,0,1.495h-.531l0-1.495Z" transform="translate(-519.123 -1134.017)" fill="#0e382c"/><path d="M580.816,1185.674v.286h.446v.274h-.446v.328h.52v.3h-.882l0-1.495h.882v.3Z" transform="translate(-548.906 -1133.978)" fill="#0e382c"/><path d="M605.392,1186.082h.172c.175,0,.261-.078.261-.224s-.091-.209-.261-.208h-.172Zm.12.246h-.12v.514h-.362l0-1.495h.606c.36,0,.577.157.577.473a.464.464,0,0,1-.334.474l.371.547h-.419Z" transform="translate(-572.144 -1133.956)" fill="#0e382c"/><path d="M644.088,1186.226l-.171-.528-.17.528Zm.074.236h-.491l-.1.329h-.356l.524-1.5h.406l.526,1.494h-.4Z" transform="translate(-608.245 -1133.907)" fill="#0e382c"/><path d="M677.855,1185.249l0,1.495h-.362v-.615h-.524v.615h-.362l0-1.495h.362v.583h.524v-.583Z" transform="translate(-639.822 -1133.863)" fill="#0e382c"/><path d="M709.321,1185.52v.286h.447v.274h-.447v.328h.52v.3h-.882l0-1.495h.882v.3Z" transform="translate(-670.411 -1133.832)" fill="#0e382c"/><path d="M731.546,1186.123l-.171-.528-.17.528Zm.074.236h-.49l-.105.329h-.356l.524-1.5h.406l.526,1.494h-.4Z" transform="translate(-690.938 -1133.809)" fill="#0e382c"/><path d="M764.965,1185.907c0-.314-.169-.438-.379-.438h-.162v.876h.162c.212,0,.379-.122.378-.438m-.373-.747a.747.747,0,1,1,0,1.495h-.531l0-1.495Z" transform="translate(-722.511 -1133.779)" fill="#0e382c"/><path d="M510.5,1237.111a.391.391,0,0,0-.377-.443c-.192,0-.373.143-.372.444s.181.444.373.444a.392.392,0,0,0,.376-.445m-1.133,0a.758.758,0,1,1,.757.782.75.75,0,0,1-.757-.782" transform="translate(-481.694 -1182.16)" fill="#0e382c"/><path d="M546.268,1236.937l0,1.494h-.358l-.573-.921v.922h-.322l0-1.495h.373l.559.835v-.836Z" transform="translate(-515.4 -1182.735)" fill="#0e382c"/><path d="M587.577,1237.2h-.364v1.185h-.362V1237.2h-.362v-.309h1.088Z" transform="translate(-554.613 -1182.691)" fill="#0e382c"/><path d="M615.171,1236.857l0,1.495h-.362v-.615h-.524v.615h-.362l0-1.495h.362v.583h.524v-.583Z" transform="translate(-580.553 -1182.66)" fill="#0e382c"/><path d="M646.637,1237.128v.286h.446v.274h-.446v.328h.52v.3h-.882l0-1.495h.882v.3Z" transform="translate(-611.142 -1182.629)" fill="#0e382c"/><path d="M680.032,1237.718l-.171-.528-.17.529Zm.074.236h-.491l-.1.328h-.356l.524-1.495h.406l.526,1.494h-.4Z" transform="translate(-642.231 -1182.593)" fill="#0e382c"/><path d="M713.319,1237.3c0-.152-.091-.242-.27-.242h-.137v.5h.137a.241.241,0,0,0,.269-.259m.383-.03a.53.53,0,0,1-.576.567h-.213v.414h-.362l0-1.495h.575c.362,0,.577.17.577.513" transform="translate(-673.806 -1182.562)" fill="#0e382c"/><path d="M741.915,1237.264c0-.152-.091-.242-.27-.242h-.137v.5h.137a.241.241,0,0,0,.269-.259m.383-.03a.53.53,0,0,1-.576.567h-.213v.415h-.362l0-1.494h.575c.362,0,.577.17.577.512" transform="translate(-700.844 -1182.531)" fill="#0e382c"/><path d="M453.813,688a11.1,11.1,0,1,1-11-11.194,11.1,11.1,0,0,1,11,11.194" transform="translate(-408.183 -653.117)" fill="#00693b"/><path d="M502.989,730.87s.6.934,5.4.976c4.414.039,4.967-.885,4.967-.885l2.393-20.284s-1.733-.588-7.388-.638-7.315.536-7.315.536Z" transform="translate(-473.823 -684.542)" fill="#fff"/><path d="M502.309,645.583l-.043-1.325c-.107-.228-.953-.557-.953-.557l-.187-1.55s.177-1.339-6.9-1.4h-.014c-7.075-.061-6.922,1.281-6.922,1.281l-.214,1.546a1.888,1.888,0,0,0-.963.54l-.066,1.224s-.088.576,1.869.779c2.206.228,6.468.14,6.468.14l0-.055a55.2,55.2,0,0,0,6.044.025c1.9-.166,1.882-.646,1.882-.646" transform="translate(-459.644 -619.027)" fill="#fff"/><path d="M503.073,709.647c-1.54-.565-7.4-.605-7.4-.605s-5.855-.063-7.4.475.16.936.16.936l-.047-.535c1.581-.827,7.29-.71,7.29-.71s5.766-.016,7.331.838l-.048.534s1.656-.369.116-.934" transform="translate(-461.133 -683.599)" fill="#d6d4d3"/><path d="M508.082,709.01c-6.055-.053-7.332.453-7.332.453l.047.423c1.581-.827,7.29-.71,7.29-.71s5.763.009,7.329.864l.041-.436s-1.235-.541-7.375-.595" transform="translate(-473.546 -683.567)" fill="#e8e9e9"/><path d="M563.011,804.567a4.376,4.376,0,1,1-4.337-4.414,4.376,4.376,0,0,1,4.337,4.414" transform="translate(-524.141 -769.748)" fill="#006241"/><path d="M832.406,1054.055a2.659,2.659,0,0,1-1.729-.557c-.734-.6-.483-1.146-.388-1.3a.809.809,0,0,1,.125-.156.7.7,0,0,1-.36-.793,10.912,10.912,0,0,1,2.8-4.1.7.7,0,1,1,.992.974,9.51,9.51,0,0,0-2.447,3.476.7.7,0,0,1-.1.225,2.758,2.758,0,0,1,.349.068,12.672,12.672,0,0,1,1.93.729l1.9.851-2.026.461A4.706,4.706,0,0,1,832.406,1054.055Zm-2.476-6.736a1.059,1.059,0,0,1-.323-.051c-.439-.14-1.111-.672-.685-2.669.412-1.934,2.27-4.28,3.822-5.642a8.884,8.884,0,0,1,2.006-1.373l1.655-.772-.723,1.677a45.823,45.823,0,0,1-3.5,6.88C831.3,1046.7,830.585,1047.32,829.93,1047.32Zm3.428-7.043a10.678,10.678,0,0,0-3.077,4.613,4.343,4.343,0,0,0-.1.8C830.643,1045.233,831.648,1043.931,833.358,1040.276Zm-2.5-1.251h-.032c-.259-.008-.731-.14-.979-.928a5.049,5.049,0,0,1-.191-1.269,8.945,8.945,0,0,1,.688-3.33,15.3,15.3,0,0,1,1.753-3.28l1.539-2.159-.281,2.636a44.575,44.575,0,0,1-.985,6.163C832.071,1037.984,831.681,1039.025,830.858,1039.025Zm.563-4.4a7.493,7.493,0,0,0-.372,1.781C831.162,1035.965,831.288,1035.385,831.421,1034.623Z" transform="translate(-784.362 -987.659)" fill="#213a33"/><path d="M799.744,378.962a.181.181,0,0,0-.014-.022,2.349,2.349,0,0,0-.816-.739,3.025,3.025,0,0,0-2.854.142c-.1.046-.2.094-.3.143q-.1-.135-.2-.266a3.2,3.2,0,0,0-2.037-1.3,2.435,2.435,0,0,0-1.475.265,2,2,0,0,0-1.011,1.369,3.547,3.547,0,0,0-.067.468,4.359,4.359,0,0,0,.079,1.2c.016.078.033.155.051.232a8.266,8.266,0,0,0,.581,1.577c.118.25.242.5.37.741l.025.049q.115.221.235.439c.034.062.068.125.1.187.363.661.745,1.312,1.109,1.969.208.376.763.341,1.389.14a10.4,10.4,0,0,0,2.35-1.21,6.77,6.77,0,0,0,.586-.481c.191-.175.386-.369.576-.58a8.2,8.2,0,0,0,.985-1.323,2.886,2.886,0,0,0,.337-2.992" transform="translate(-747.941 -369.55)" fill="#00693b"/><path d="M1061.62,257.171a3.4,3.4,0,0,0-.344.591c-.049.107-.092.213-.127.314a2.789,2.789,0,0,0-.088.3,4.3,4.3,0,0,0-.078,1.093c.025.271.1.488.279.506.309.032.62.071.931.1l.088.009.206.018.023,0c.114.009.229.016.343.021a3.427,3.427,0,0,0,.7-.035l.1-.018a1.808,1.808,0,0,0,.469-.165,1.479,1.479,0,0,0,.168-.1.828.828,0,0,0,.357-.608,1.009,1.009,0,0,0-.139-.605,1.325,1.325,0,0,0-.829-.564q-.067-.019-.135-.034c0-.045.005-.091.006-.137a1.254,1.254,0,0,0-.411-1.111.974.974,0,0,0-.415-.191l-.011,0a1.2,1.2,0,0,0-1.086.616" transform="translate(-1003.247 -255.758)" fill="#00693b"/><path d="M992.886,368.631l.326-3.027a.122.122,0,0,0-.211-.1l-2.19,2.373a.122.122,0,0,1-.144.026l-2.57-1.27a.122.122,0,0,0-.161.168l1.524,2.783a.122.122,0,0,1-.019.143l-2.132,2.2a.122.122,0,0,0,.115.2l2.918-.668a.122.122,0,0,1,.132.056l1.544,2.595a.122.122,0,0,0,.225-.044l.455-3.01a.122.122,0,0,1,.089-.1l2.708-.711a.122.122,0,0,0,.023-.227l-2.565-1.272a.122.122,0,0,1-.067-.122" transform="translate(-933.564 -358.747)" fill="#d8a43d"/><path d="M943.592,279.459l-.538-1.15a.051.051,0,0,0-.1.011l-.269,1.32a.051.051,0,0,1-.045.04l-1.192.1a.051.051,0,0,0-.021.095l1.145.664a.051.051,0,0,1,.024.055l-.285,1.245a.051.051,0,0,0,.085.048l.9-.869a.051.051,0,0,1,.059-.008l1.111.592a.051.051,0,0,0,.071-.064l-.488-1.172a.051.051,0,0,1,.01-.055l.812-.839a.051.051,0,0,0-.041-.086l-1.19.1a.051.051,0,0,1-.05-.029" transform="translate(-890.194 -276.308)" fill="#d8a43d"/></g></g><text transform="translate(35.067 104.521)" fill="#0e6241" font-size="14" font-family="SourceHanSansTW-Medium, Source Han Sans TW" opacity="0" font-weight="500"><tspan x="-35.5" y="0">行動預點</tspan><tspan y="0" xml:space="preserve" font-size="12" font-family="FontAwesome6Pro-Regular, 'Font Awesome \36  Pro'" font-weight="400"> </tspan></text><path d="M-22.55-10.934h-6.79v1.246h6.79ZM-31.8-11.76A12.668,12.668,0,0,1-35-8.75a5.952,5.952,0,0,1,.742,1.05,18.477,18.477,0,0,0,3.7-3.542Zm.546,3a14.859,14.859,0,0,1-3.878,4.2,7.216,7.216,0,0,1,.9,1.106,18.53,18.53,0,0,0,1.386-1.26V1.134h1.3V-6.16A18.891,18.891,0,0,0-30.026-8.3Zm9.1,1.652h-7.77v1.246H-25.5V-.49c0,.2-.084.266-.35.266s-1.19.014-2.086-.014a5.223,5.223,0,0,1,.42,1.3,8.749,8.749,0,0,0,2.646-.21c.532-.21.7-.588.7-1.33v-5.39h2.016Zm5.362,5.32h2.632v-.952H-16.8v-.714h2.6V-7.672h-2.6V-8.4h2.772v1.05h1.484C-12.652-4.8-13-2.688-14.15-1.106c-.882.1-1.778.182-2.646.266Zm-2.632-2.52v-.854h1.442v.854Zm4.13-.854v.854h-1.5v-.854Zm-1.5-.8v-.854h1.5v.854Zm-2.632-.854h1.442v.854h-1.442Zm8.162-1.736c.014-.952.028-1.96.028-3h-1.246c0,1.05,0,2.044-.014,3h-1.47v-.812H-16.8v-.9c.966-.1,1.89-.238,2.632-.392l-.616-.98a43.55,43.55,0,0,1-6.006.686,3.875,3.875,0,0,1,.308.938c.784-.028,1.638-.07,2.492-.14v.784H-20.87V-8.4h2.884v.728h-2.506v4.214h2.506v.714h-2.548v.952h2.548V-.728c-1.106.1-2.114.182-2.926.238l.168,1.106c1.5-.14,3.514-.35,5.53-.588a3.075,3.075,0,0,1-.252.2,4.377,4.377,0,0,1,.938.966c2.408-1.848,3.038-4.816,3.22-8.54h1.652c-.112,4.816-.252,6.594-.56,6.986a.53.53,0,0,1-.5.224c-.252,0-.826,0-1.47-.056a3.442,3.442,0,0,1,.364,1.232A9.805,9.805,0,0,0-10.1,1.022,1.237,1.237,0,0,0-9.11.42c.448-.6.574-2.59.728-8.372,0-.154.014-.6.014-.6ZM4.12-6.748H.48V-7.91H4.12Zm0,2.086H.48V-5.838H4.12Zm0,2.086H.48V-3.752H4.12Zm-4.844-6.3V-1.6h6.09v-7.28H2.636c.112-.364.238-.756.364-1.162H5.814v-1.106H-1.242v1.106h2.8c-.056.378-.14.784-.21,1.162Zm-1.26,5.488c.35-.784.742-2.044,1.092-3.15l-.812-.2-.182.042h-.84l.336-.462a7.951,7.951,0,0,0-.98-.8,14.989,14.989,0,0,0,2.1-2.674l-.8-.56-.238.07H-6.66v1.134h3.528A10.5,10.5,0,0,1-4.308-8.568c-.448-.266-.91-.532-1.344-.742l-.686.854A15.112,15.112,0,0,1-3.65-6.692H-6.968V-5.53h2.184V-.378c0,.154-.056.21-.238.21s-.84.014-1.5,0a5.238,5.238,0,0,1,.392,1.232A5.457,5.457,0,0,0-4.1.854c.462-.21.574-.574.574-1.218V-5.53h1.19a18.946,18.946,0,0,1-.63,1.9ZM.634-1.442A8.983,8.983,0,0,1-2.292.28a8.463,8.463,0,0,1,.868.868,10.546,10.546,0,0,0,3.178-1.9ZM2.72-.714A16.617,16.617,0,0,1,5.1,1.134L6.122.392A16.689,16.689,0,0,0,3.7-1.372ZM11.4-7.588c.238-.518.5-1.372.77-2.058l-.714-.266a17.61,17.61,0,0,1-.574,2.128ZM8.684-9.716A9.311,9.311,0,0,1,9.09-7.644l.63-.2a10.294,10.294,0,0,0-.448-2.03Zm-.112-.644H9.93v3.22H8.572ZM12.2-7.14H10.77v-3.22H12.2Zm1.26,3.626h-2.52v-.91h2.324V-5.446H10.938V-6.23H13.22v-5.04H7.578v5.04H9.79v.784H7.536v1.022H9.79v.91H7.284v1.022h6.174ZM7.914.924a8.453,8.453,0,0,0,.84-2.618l-.868-.322A7.946,7.946,0,0,1,6.99.546ZM9.16-1.68A11.261,11.261,0,0,1,9.328.742L10.2.63a12.365,12.365,0,0,0-.21-2.408Zm1.414-.014a10.023,10.023,0,0,1,.56,2.282l.84-.2a11.194,11.194,0,0,0-.6-2.24Zm1.4-.028A8.922,8.922,0,0,1,12.884.49l.854-.322a8.78,8.78,0,0,0-.952-2.184ZM18.176-.7H15.068V-3.99h3.108Zm1.75-6.874v-1.2H17.084v-2.954h-1.26v6.566H13.892V1.092h1.176V.49h3.108v.546h1.232v-6.2H17.084V-7.574ZM30.468-4.889,26.343-9.2a.562.562,0,0,0-.794-.018.56.56,0,0,0-.174.406.562.562,0,0,0,.156.389L29.284-4.5,25.532-.577a.563.563,0,0,0,.018.8.563.563,0,0,0,.8-.018L30.47-4.111A.564.564,0,0,0,30.468-4.889Zm4.5,0L30.843-9.2a.562.562,0,0,0-.795-.018.564.564,0,0,0-.173.406.562.562,0,0,0,.156.389L33.784-4.5,30.032-.577a.563.563,0,0,0,.018.8.563.563,0,0,0,.8-.018L34.97-4.111A.564.564,0,0,0,34.968-4.889Z" transform="translate(35.067 104.521)" fill="#0e6241"/></g><g transform="translate(191.914 662.021)"><g transform="translate(254.084 -104.748)"><path d="M69.744,560.157a34.872,34.872,0,1,0-34.872,34.872,34.872,34.872,0,0,0,34.872-34.872" transform="translate(0 -519.085)" fill="#0e382c"/><g transform="translate(3.325)"><path d="M47.974,139.6l-2.231-2.324-2.9,1.4,1.524-2.834-2.231-2.324,3.174.573,1.524-2.834.437,3.188,3.172.573-2.9,1.4Z" transform="translate(-42.133 -97.951)" fill="#d2a04a"/><g transform="translate(27.744)"><path d="M161.473,60.623c-.493-.491-1.194-2.583-.566-3.136s9.3-1.595,12.75-1.661,10.824-.123,11.563.737.669,2.525.609,3.26c1.6,4.187,2.89,9.287,2.829,12.517s.066,9.317,0,11.163-.739,10.763-.679,12.916-.368,9.331-1.352,10.816-7.744,4.314-11.961,4.314-10.028,0-12.28-1.558c-1.8-1.246-.915-39.89-.915-39.89Z" transform="translate(-156.706 -55.793)" fill="#679f7d"/><path d="M151.982,73.973c1.175,0,4.06,4.551,4.305,5.9s-.493,42.376-1.846,43.3-7.565-2.645-7.749-3.747,1.292-35.185,1.727-37.461S150.752,73.973,151.982,73.973Z" transform="translate(-146.677 -68.835)"/><ellipse cx="4.013" cy="3.382" rx="4.013" ry="3.382" transform="matrix(0.589, -0.808, 0.808, 0.589, 16.479, 42.527)" fill="#003f29"/><path d="M194.029,123.084a.585.585,0,0,1-.579-.674,13.467,13.467,0,0,1,2.7-4.766,34.876,34.876,0,0,1,2.662-2.6c1.687-1.565,3.787-3.512,5.375-5.312,2.184-2.477,2.313-3.459,2.228-3.8a2.477,2.477,0,0,0-.928.137c-.565.154-1.239.4-1.953.67-1.974.734-3.839,1.427-4.775.662a1.015,1.015,0,0,1-.369-.738c-.049-.726.528-1.771,1.932-3.493,1.09-1.337,2.475-2.826,3.7-4.14,1.108-1.191,2.065-2.22,2.443-2.752a.585.585,0,1,1,.954.677c-.423.6-1.4,1.65-2.541,2.872-1.227,1.318-2.617,2.812-3.687,4.132-1.412,1.74-1.607,2.383-1.63,2.569a2.158,2.158,0,0,0,1.146-.08,22.677,22.677,0,0,0,2.421-.8,19.612,19.612,0,0,1,2.423-.793c1.039-.226,1.689-.026,1.934.592.439,1.111-.307,2.674-2.419,5.069-1.627,1.844-3.75,3.814-5.456,5.4-1.169,1.084-2.179,2.021-2.545,2.478a12.686,12.686,0,0,0-2.462,4.213A.585.585,0,0,1,194.029,123.084Z" transform="translate(-180.646 -85.072)"/><path d="M175.259,71.141c-.495,0-.88-.1-1.044-.47a.726.726,0,0,1,.039-.665c.178-.309.647-.69,2.782-1.182a41.014,41.014,0,0,1,4.663-.757,76.434,76.434,0,0,1,13.193,0,.585.585,0,0,1-.187,1.155,23.819,23.819,0,0,0-2.51-.2.585.585,0,0,1-.523.826c-.036,0-3.669.061-7.194.138a46.131,46.131,0,0,0-5.771.7c-1.065.173-1.985.323-2.692.4A7.343,7.343,0,0,1,175.259,71.141Z" transform="translate(-166.807 -64.817)"/><path d="M251.26,76.942l-4.224-2.332-3.531,3.29.919-4.731L240.2,70.838l4.792-.592.919-4.731,2.043,4.365,4.792-.593-3.529,3.29Z" transform="translate(-213.769 -62.768)" fill="#d2a04a"/></g><g transform="translate(8.307 5.835)"><path d="M100.35,123.915l-.37,4.839-1.06,13.862L97.226,164.76H79.771l-.577-8.348-.668-9.671-1.578-22.826Z" transform="translate(-76.044 -107.563)" fill="#d2a04a"/><ellipse cx="8.727" cy="2.607" rx="8.727" ry="2.607" transform="translate(3.727 54.59)" fill="#d2a04a"/><ellipse cx="12.454" cy="2.86" rx="12.454" ry="2.86" transform="translate(0 11.095)" fill="#d2a04a"/><path d="M116.064,80.632a.339.339,0,0,0-.011-.082h.01l-.212-12.176-2.222.039.212,12.177h.01a.33.33,0,0,0-.008.082c.006.36.508.644,1.122.633S116.071,80.992,116.064,80.632Z" transform="translate(-102.359 -67.719)" fill="#006241"/><path d="M103.985,141.036l-1.06,13.862c-4.116,4.028-13.082,10.87-19.725,13.8l-.669-9.665C88.4,156.516,99.868,146.276,103.985,141.036Z" transform="translate(-80.049 -119.845)" fill="#e3ae66"/><circle cx="6.212" cy="6.212" r="6.212" transform="translate(6.393 30.92)" fill="#006241"/><path d="M89.988,120.739a44.5,44.5,0,0,1-6.207-.5,35.776,35.776,0,0,1-7.421-1.757.585.585,0,1,1,.434-1.086,35.162,35.162,0,0,0,7.156,1.686,36.054,36.054,0,0,0,7.7.427c3.749-.336,6.714-.973,7.932-1.7a.585.585,0,0,1,.6,1c-1.4.841-4.4,1.5-8.429,1.865C91.231,120.716,90.636,120.739,89.988,120.739Z" transform="translate(-75.778 -103.273)"/><path d="M93.084,135.41h-.172c-3.254-.019-8.555-.827-10.1-1.742a.585.585,0,1,1,.6-1.007c1.135.672,5.952,1.558,9.513,1.579,3.359.021,8.285-.656,9.945-1.367a.585.585,0,1,1,.46,1.075C101.514,134.723,96.678,135.41,93.084,135.41Z" transform="translate(-80.463 -114.198)"/><path d="M73.75,114.125v3.229c0,1.579,5.576,2.86,12.452,2.86s12.452-1.28,12.452-2.86v-3.229Z" transform="translate(-73.75 -100.54)" fill="#d2a04a"/><ellipse cx="1.111" cy="0.652" rx="1.111" ry="0.652" transform="matrix(1, -0.017, 0.017, 1, 11.26, 0.039)" fill="#006241"/></g><path d="M161.146,261.018a3.2,3.2,0,0,1-3.69-.829c-1.122-1.269-1.089-2.788-.5-3.426a4.558,4.558,0,0,0,1.975,2.347A4.756,4.756,0,0,1,161.146,261.018Z" transform="translate(-109.318 -197.514)" fill="#679f7d"/><path d="M163.277,259.805a1.341,1.341,0,0,1-.149.134,5.3,5.3,0,0,0-2.366-2.029,4.242,4.242,0,0,1-1.841-2.256c1.228-.678,2.112,1.261,2.626,1.444S164.056,258.984,163.277,259.805Z" transform="translate(-111.018 -196.616)" fill="#679f7d"/><path d="M260.617,238.775a2.757,2.757,0,0,1-3.117,1.958c-1.75-.166-5.079-.937-3.765-3.454a.18.18,0,0,0,.054.015,3.413,3.413,0,0,1,1.672.782,3.538,3.538,0,0,0,1.133.627,7.252,7.252,0,0,0,1.744.192,7.71,7.71,0,0,0,1.041-.065,6.465,6.465,0,0,1,1.239-.056Z" transform="translate(-192.901 -174.566)" fill="#1a3c34"/><path d="M256.869,234.314a3.855,3.855,0,0,0-1.739-.832c.647-.956,1.844-1.449,3.847-.733s2.915,1.231,2.894,2.2a6.775,6.775,0,0,0-1.322.056,7.707,7.707,0,0,1-2.658-.119A3.327,3.327,0,0,1,256.869,234.314Z" transform="translate(-194.117 -171.071)" fill="#1a3c34"/><path d="M245.606,255.688a7.545,7.545,0,0,0-1.073.486c-.236-1.082.882-2.389,1.783-2.994a3.553,3.553,0,0,1,3.243-.569,8.192,8.192,0,0,0-.9.585,4.46,4.46,0,0,0-.574.631,5.478,5.478,0,0,1-1.543,1.444A7.778,7.778,0,0,1,245.606,255.688Z" transform="translate(-186.492 -185.425)" fill="#1a3c34"/><path d="M250.022,256.768c-.984,1-2.937,3.46-4.874.893a1.4,1.4,0,0,1-.132-.212,6.839,6.839,0,0,1,1.08-.495,8.17,8.17,0,0,0,.982-.441,5.778,5.778,0,0,0,1.635-1.524,4.362,4.362,0,0,1,.525-.583,9.3,9.3,0,0,1,1.026-.653C251.278,254.454,251,255.778,250.022,256.768Z" transform="translate(-186.861 -186.384)" fill="#1a3c34"/></g></g><text transform="translate(289.084 -8.807)" fill="#0e6241" font-size="14" font-family="SourceHanSansTW-Medium, Source Han Sans TW" opacity="0.001" font-weight="500"><tspan x="-28.5" y="0">金星禮</tspan><tspan y="0" xml:space="preserve" font-size="12" font-family="FontAwesome6Pro-Regular, 'Font Awesome \36  Pro'" font-weight="400"> </tspan></text><path d="M-24.3-7.644a12.665,12.665,0,0,0,2.814-2.268,15.678,15.678,0,0,0,2.968,2.268Zm6.412,1.2v-.854a14.433,14.433,0,0,0,2.086.952,6.259,6.259,0,0,1,.9-1.134,14.9,14.9,0,0,1-5.824-3.318c.126-.168.238-.35.364-.532l-1.218-.546a11.913,11.913,0,0,1-6.468,4.4,5.045,5.045,0,0,1,.868,1.2,17.514,17.514,0,0,0,2.03-.9v.728h2.926v1.694h-4.62V-3.57h4.62V-.448h-5.264V.742H-15.48V-.448h-5.362V-3.57h4.69V-4.746h-4.69V-6.44Zm-.9,5.936c.476-.63,1.092-1.582,1.624-2.464l-1.26-.462A13.14,13.14,0,0,1-19.778-.924Zm-7-2.506A11.8,11.8,0,0,1-24.538-.518l1.134-.49A10.99,10.99,0,0,0-24.72-3.43Zm14.9-5.222h6.72V-7.2h-6.72Zm0-1.96h6.72V-9.2h-6.72ZM-6.8-.378V-1.666h3.906V-2.688H-6.8V-3.794h4.508V-4.886H-6.8V-5.894H-8.144v1.008h-2.45c.182-.322.378-.644.532-.966l-1.092-.322h8.33v-5.04h-9.338v5.04h.8a8.263,8.263,0,0,1-2.45,3.038,7.193,7.193,0,0,1,1.106.8A11.528,11.528,0,0,0-11.35-3.794h3.206v1.106H-11.9v1.022h3.752V-.378h-5.418V.742H-1.41V-.378Zm18.046-8.61H10.154v-.826h1.092Zm0,1.624H10.154V-8.2h1.092ZM6.332-8.2H7.4v.84H6.332Zm0-1.61H7.4v.826H6.332ZM9.286-8.2v.84H8.264V-8.2ZM8.264-8.988v-.826H9.286v.826Zm4.074-1.638h-2.03v-1.106H9.286v1.106H8.264v-1.106H7.242v1.106H5.268v4.088h7.07Zm.42,4.69H4.806v.966h7.952ZM6.78-3.542H10.8v1.036H6.78ZM11.918-1.68V-4.354H5.688V-1.68ZM4.988-4.06c-.266-.294-1.19-1.386-1.708-1.9a13.329,13.329,0,0,0,1.47-3.01l-.672-.462-.224.056H2.566l.826-.56a7.982,7.982,0,0,0-1.176-1.75l-.952.6A10.568,10.568,0,0,1,2.328-9.38H.27V-8.2H3.224A10.566,10.566,0,0,1-.01-4.186a5.6,5.6,0,0,1,.546,1.3A12.852,12.852,0,0,0,1.908-4.172V1.106H3.1V-4.522c.406.56.84,1.162,1.078,1.54ZM10.574-.14c.224-.364.476-.784.714-1.2l-1.162-.322A14.516,14.516,0,0,1,9.51-.14H8.082a10.589,10.589,0,0,0-.6-1.512l-.994.294c.154.378.336.826.476,1.218H4.554V.854h8.358V-.14ZM23.468-4.889,19.343-9.2a.562.562,0,0,0-.794-.018.56.56,0,0,0-.174.406.562.562,0,0,0,.156.389L22.284-4.5,18.532-.577a.563.563,0,0,0,.018.8.563.563,0,0,0,.8-.018L23.47-4.111A.564.564,0,0,0,23.468-4.889Zm4.5,0L23.843-9.2a.562.562,0,0,0-.795-.018.564.564,0,0,0-.173.406.562.562,0,0,0,.156.389L26.784-4.5,23.032-.577a.563.563,0,0,0,.018.8.563.563,0,0,0,.8-.018L27.97-4.111A.564.564,0,0,0,27.968-4.889Z" transform="translate(289.084 -8.807)" fill="#0e6241"/></g><g transform="translate(92.695 679.124)"><g transform="translate(186.414 -124.7)"><path d="M69.744,560.157a34.872,34.872,0,1,0-34.872,34.872,34.872,34.872,0,0,0,34.872-34.872" transform="translate(6.663 -516.236)" fill="#0e382c"/><g clip-path="url(#e)"><g transform="translate(0.676 0.666)"><path d="M41.076,0,31.38,29.84H0L25.387,48.284l-9.7,29.842L41.076,59.683,66.462,78.126l-9.7-29.842L82.151,29.84H50.773Z" transform="translate(0 0.001)" fill="#d59833"/><path d="M207.527,237.633l-22.859-16.607h28.255l8.731-26.87,8.731,26.87h28.254l-22.858,16.607,8.731,26.871L221.654,247.9,198.8,264.5Z" transform="translate(-180.578 -189.855)" fill="#b4e99e"/><path d="M389.668,426.982l-20.331-14.77h25.13l7.765-23.9,7.765,23.9h25.129l-20.33,14.77,7.765,23.9-20.33-14.77-20.33,14.77Z" transform="translate(-361.156 -379.712)" fill="#006241"/><path d="M571.808,616.331l-17.8-12.934h22l6.8-20.926,6.8,20.926h22l-17.8,12.934,6.8,20.927-17.8-12.933-17.8,12.933Z" transform="translate(-541.733 -569.568)" fill="#baf1d0"/><path d="M753.948,805.679l-15.274-11.1h18.88l5.834-17.954,5.834,17.954H788.1l-15.273,11.1,5.834,17.955-15.273-11.1-15.274,11.1Z" transform="translate(-722.311 -759.425)" fill="#d59833"/><path d="M936.088,995.028l-12.746-9.26H939.1l4.868-14.982,4.868,14.982h15.754l-12.745,9.26,4.868,14.983-12.745-9.26-12.746,9.26Z" transform="translate(-902.888 -949.281)" fill="#b4e99e"/><path d="M1124.543,1188.964l-10.217,7.423,3.9-12.011-10.218-7.423h12.63l3.9-12.011,3.9,12.011h12.629l-10.217,7.423,3.9,12.011Z" transform="translate(-1083.467 -1139.137)" fill="#006241"/><path d="M1300.369,1373.726l-7.69-5.587h9.5l2.937-9.039,2.937,9.039h9.5l-7.689,5.587,2.937,9.039-7.689-5.587-7.689,5.587Z" transform="translate(-1264.044 -1328.995)" fill="#baf1d0"/><path d="M1485.7,1565.391l-5.161,3.75,1.971-6.067-5.161-3.75h6.38l1.971-6.067,1.971,6.067h6.379l-5.161,3.75,1.971,6.067Z" transform="translate(-1444.622 -1518.85)" fill="#d59833"/></g></g></g><text transform="translate(227.302 -25.91)" fill="#0e6241" font-size="14" font-family="SourceHanSansTW-Medium, Source Han Sans TW" opacity="0" font-weight="500"><tspan x="-35.5" y="0">專屬活動</tspan><tspan y="0" xml:space="preserve" font-size="12" font-family="FontAwesome6Pro-Regular, 'Font Awesome \36  Pro'" font-weight="400"> </tspan></text><path d="M-27.884-5.208h1.722l-.322.266a7.441,7.441,0,0,1,.854.364l-2.254.028ZM-32.1-6.02v-.728h2.94v.728Zm0-2.226h2.94v.7H-32.1Zm7.252,0v.7h-3.038v-.7Zm0,2.226h-3.038v-.728h3.038Zm2.66,3.038H-25.42v-.756l1.218-.028a7.113,7.113,0,0,1,.728.518l.77-.7a11.558,11.558,0,0,0-2.17-1.26h1.3V-9.086h-4.312v-.658h5.166v-1.008h-5.166v-.98h-1.274v.98h-5.25v1.008h5.25v.658H-33.33v3.878h4.172v.658c-1.946.014-3.738.028-5.082.028l.042.98c1.988-.028,4.7-.084,7.5-.154v.714H-34.8v1.05h2.842l-.63.546a11.59,11.59,0,0,1,2.2,1.82l.952-.84a10.893,10.893,0,0,0-1.9-1.526h4.648v1.68c0,.168-.056.224-.28.238S-27.982,0-28.752-.028a4.318,4.318,0,0,1,.406,1.12,8.089,8.089,0,0,0,2.3-.168c.5-.182.63-.518.63-1.134V-1.932h3.234ZM-11.112-.9V-2.6h-2.534V-3.08h3.794a9.1,9.1,0,0,1-.406,3.038.379.379,0,0,1-.35.154h-.252A6.954,6.954,0,0,0-11.728-.9Zm-2.534.5V-.9H-12.4l-.336.154.28.28ZM-12.12-1.47h-1.526v-.56h1.526Zm-4.186,0v-.56h1.554v.56Zm1.554-1.61V-2.6h-1.932a6.045,6.045,0,0,0,.546-.476Zm4.592-7.266v.8h-8.274v-.8Zm-6.608,4.718h1.47v.7h-1.47Zm2.478,0h1.526v.7H-14.29Zm2.534,0h1.568v.7h-1.568Zm-3.7,1.778c.126-.154.238-.308.35-.476H-9.11v-1.89h-8.708v1.89h1.386a7.16,7.16,0,0,1-2.324,1.848,29.551,29.551,0,0,0,.322-4.634V-8.666h8.47c-.6.182-1.554.49-2.17.6l.28.56a10.769,10.769,0,0,0,2.394-.56l-.364-.6H-8.9v-2.562H-19.694V-7.1c0,2.2-.1,5.334-1.26,7.532a4.619,4.619,0,0,1,1.12.63A11.731,11.731,0,0,0-18.756-2.45a3.875,3.875,0,0,1,.784.728,5.693,5.693,0,0,0,.686-.434V-.9h2.534v.574c-1.26.07-2.436.126-3.346.168l.1.882c1.652-.1,3.934-.266,6.146-.448.1.14.182.266.238.364l.308-.14a2.284,2.284,0,0,1,.1.5A6.445,6.445,0,0,0-10.02.994,1,1,0,0,0-9.25.6c.308-.35.448-1.344.574-4,.014-.14.028-.448.028-.448Zm3.136-2.982a15.338,15.338,0,0,1,2.632.6l.252-.686a13.278,13.278,0,0,0-2.688-.518Zm-.56.406v-2.03h-1.2v2.03Zm-4.634.2c.812-.154,1.932-.406,2.968-.63l-.014-.7-.56.112.252-.644a13.128,13.128,0,0,0-2.422-.49l-.224.616a12.551,12.551,0,0,1,2.31.532c-.966.182-1.89.336-2.534.434Zm14.63-3.906a29.161,29.161,0,0,0-2.6-1.414l-.728.924c.826.462,1.988,1.134,2.562,1.54Zm-.714,3.752c-.588-.378-1.778-.994-2.576-1.386l-.714.966c.84.434,2,1.106,2.576,1.5ZM-5.512.924c.826-1.3,1.764-2.982,2.478-4.424l-.938-.868A41.52,41.52,0,0,1-6.6.056Zm9.338-1.6H-.808v-2.52H3.826ZM5.884-6.44V-7.686H2.174v-2.2a18.706,18.706,0,0,0,3.15-.812L4.3-11.7a31.894,31.894,0,0,1-6.65,1.274A4.6,4.6,0,0,1-1.97-9.338c.924-.07,1.932-.182,2.912-.336v1.988H-2.95V-6.44H.942v2.072H-2v5.46h1.19V.5H3.826v.518H5.058v-5.39H2.174V-6.44ZM11.2-1.792h2.632v-.952H11.2v-.714h2.6V-7.672H11.2V-8.4h2.772v1.05H15.46C15.348-4.8,15-2.688,13.85-1.106c-.882.1-1.778.182-2.646.266ZM8.572-4.312v-.854h1.442v.854Zm4.13-.854v.854H11.2v-.854Zm-1.5-.8v-.854h1.5v.854ZM8.572-6.818h1.442v.854H8.572Zm8.162-1.736c.014-.952.028-1.96.028-3H15.516c0,1.05,0,2.044-.014,3h-1.47v-.812H11.2v-.9c.966-.1,1.89-.238,2.632-.392l-.616-.98a43.55,43.55,0,0,1-6.006.686,3.875,3.875,0,0,1,.308.938c.784-.028,1.638-.07,2.492-.14v.784H7.13V-8.4h2.884v.728H7.508v4.214h2.506v.714H7.466v.952h2.548V-.728C8.908-.63,7.9-.546,7.088-.49L7.256.616c1.5-.14,3.514-.35,5.53-.588a3.075,3.075,0,0,1-.252.2,4.377,4.377,0,0,1,.938.966c2.408-1.848,3.038-4.816,3.22-8.54h1.652c-.112,4.816-.252,6.594-.56,6.986a.53.53,0,0,1-.5.224c-.252,0-.826,0-1.47-.056a3.442,3.442,0,0,1,.364,1.232A9.805,9.805,0,0,0,17.9,1.022a1.237,1.237,0,0,0,.994-.6c.448-.6.574-2.59.728-8.372,0-.154.014-.6.014-.6ZM30.468-4.889,26.343-9.2a.562.562,0,0,0-.794-.018.56.56,0,0,0-.174.406.562.562,0,0,0,.156.389L29.284-4.5,25.532-.577a.563.563,0,0,0,.018.8.563.563,0,0,0,.8-.018L30.47-4.111A.564.564,0,0,0,30.468-4.889Zm4.5,0L30.843-9.2a.562.562,0,0,0-.795-.018.564.564,0,0,0-.173.406.562.562,0,0,0,.156.389L33.784-4.5,30.032-.577a.563.563,0,0,0,.018.8.563.563,0,0,0,.8-.018L34.97-4.111A.564.564,0,0,0,34.968-4.889Z" transform="translate(227.302 -25.91)" fill="#0e6241"/></g></g></svg>